<?xml version="1.0" encoding="UTF-8"?>
<svg xmlns="http://www.w3.org/2000/svg" xmlns:xlink="http://www.w3.org/1999/xlink" width="194.037pt" height="194.037pt" viewBox="0 0 194.037 194.037">
<path fill-rule="nonzero" fill="rgb(3.135681%, 18.824768%, 41.96167%)" fill-opacity="1" stroke-width="0.59776" stroke-linecap="butt" stroke-linejoin="miter" stroke="rgb(75%, 0%, 25%)" stroke-opacity="1" stroke-miterlimit="10" d="M -11.340438 -11.33925 L 11.33925 -11.33925 L 11.33925 11.340438 L -11.340438 11.340438 Z M -11.340438 -11.33925 " transform="matrix(1, 0, 0, -1, 15.817, 15.817)"/>
<path fill-rule="nonzero" fill="rgb(77.253723%, 85.488892%, 93.331909%)" fill-opacity="1" stroke-width="0.59776" stroke-linecap="butt" stroke-linejoin="miter" stroke="rgb(75%, 0%, 25%)" stroke-opacity="1" stroke-miterlimit="10" d="M -11.337531 -11.33925 L 11.33825 -11.33925 L 11.33825 11.340438 L -11.337531 11.340438 Z M -11.337531 -11.33925 " transform="matrix(1, 0, 0, -1, 38.693, 15.817)"/>
<path fill-rule="nonzero" fill="rgb(77.253723%, 85.488892%, 93.331909%)" fill-opacity="1" stroke-width="0.59776" stroke-linecap="butt" stroke-linejoin="miter" stroke="rgb(75%, 0%, 25%)" stroke-opacity="1" stroke-miterlimit="10" d="M -11.339531 -11.33925 L 11.340156 -11.33925 L 11.340156 11.340438 L -11.339531 11.340438 Z M -11.339531 -11.33925 " transform="matrix(1, 0, 0, -1, 61.57, 15.817)"/>
<path fill-rule="nonzero" fill="rgb(41.569519%, 67.843628%, 83.529663%)" fill-opacity="1" stroke-width="0.59776" stroke-linecap="butt" stroke-linejoin="miter" stroke="rgb(75%, 0%, 25%)" stroke-opacity="1" stroke-miterlimit="10" d="M -11.340531 -11.33925 L 11.339156 -11.33925 L 11.339156 11.340438 L -11.340531 11.340438 Z M -11.340531 -11.33925 " transform="matrix(1, 0, 0, -1, 84.446, 15.817)"/>
<path fill-rule="nonzero" fill="rgb(41.569519%, 67.843628%, 83.529663%)" fill-opacity="1" stroke-width="0.59776" stroke-linecap="butt" stroke-linejoin="miter" stroke="rgb(75%, 0%, 25%)" stroke-opacity="1" stroke-miterlimit="10" d="M -11.338625 -11.33925 L 11.337156 -11.33925 L 11.337156 11.340438 L -11.338625 11.340438 Z M -11.338625 -11.33925 " transform="matrix(1, 0, 0, -1, 107.323, 15.817)"/>
<path fill-rule="nonzero" fill="rgb(12.548828%, 43.920898%, 70.588684%)" fill-opacity="1" stroke-width="0.59776" stroke-linecap="butt" stroke-linejoin="miter" stroke="rgb(75%, 0%, 25%)" stroke-opacity="1" stroke-miterlimit="10" d="M -11.339625 -11.33925 L 11.340062 -11.33925 L 11.340062 11.340438 L -11.339625 11.340438 Z M -11.339625 -11.33925 " transform="matrix(1, 0, 0, -1, 130.199, 15.817)"/>
<path fill-rule="nonzero" fill="rgb(12.548828%, 43.920898%, 70.588684%)" fill-opacity="1" stroke-width="0.59776" stroke-linecap="butt" stroke-linejoin="miter" stroke="rgb(75%, 0%, 25%)" stroke-opacity="1" stroke-miterlimit="10" d="M -11.337719 -11.33925 L 11.338062 -11.33925 L 11.338062 11.340438 L -11.337719 11.340438 Z M -11.337719 -11.33925 " transform="matrix(1, 0, 0, -1, 153.076, 15.817)"/>
<path fill-rule="nonzero" fill="rgb(3.135681%, 18.824768%, 41.96167%)" fill-opacity="1" stroke-width="0.59776" stroke-linecap="butt" stroke-linejoin="miter" stroke="rgb(75%, 0%, 25%)" stroke-opacity="1" stroke-miterlimit="10" d="M -11.338719 -11.33925 L 11.337062 -11.33925 L 11.337062 11.340438 L -11.338719 11.340438 Z M -11.338719 -11.33925 " transform="matrix(1, 0, 0, -1, 175.952, 15.817)"/>
<path fill-rule="nonzero" fill="rgb(7.450867%, 37.644958%, 65.489197%)" fill-opacity="1" stroke-width="0.59776" stroke-linecap="butt" stroke-linejoin="miter" stroke="rgb(75%, 0%, 25%)" stroke-opacity="1" stroke-miterlimit="10" d="M -11.340438 -11.33725 L 11.33925 -11.33725 L 11.33925 11.338531 L -11.340438 11.338531 Z M -11.340438 -11.33725 " transform="matrix(1, 0, 0, -1, 15.817, 38.694)"/>
<path fill-rule="nonzero" fill="rgb(91.764832%, 94.900513%, 98.039246%)" fill-opacity="1" stroke-width="0.59776" stroke-linecap="butt" stroke-linejoin="miter" stroke="rgb(75%, 0%, 25%)" stroke-opacity="1" stroke-miterlimit="10" d="M -11.337531 -11.33725 L 11.33825 -11.33725 L 11.33825 11.338531 L -11.337531 11.338531 Z M -11.337531 -11.33725 " transform="matrix(1, 0, 0, -1, 38.693, 38.694)"/>
<path fill-rule="nonzero" fill="rgb(91.764832%, 94.900513%, 98.039246%)" fill-opacity="1" stroke-width="0.59776" stroke-linecap="butt" stroke-linejoin="miter" stroke="rgb(75%, 0%, 25%)" stroke-opacity="1" stroke-miterlimit="10" d="M -11.339531 -11.33725 L 11.340156 -11.33725 L 11.340156 11.338531 L -11.339531 11.338531 Z M -11.339531 -11.33725 " transform="matrix(1, 0, 0, -1, 61.57, 38.694)"/>
<path fill-rule="nonzero" fill="rgb(69.410706%, 82.351685%, 90.586853%)" fill-opacity="1" stroke-width="0.59776" stroke-linecap="butt" stroke-linejoin="miter" stroke="rgb(75%, 0%, 25%)" stroke-opacity="1" stroke-miterlimit="10" d="M -11.340531 -11.33725 L 11.339156 -11.33725 L 11.339156 11.338531 L -11.340531 11.338531 Z M -11.340531 -11.33725 " transform="matrix(1, 0, 0, -1, 84.446, 38.694)"/>
<path fill-rule="nonzero" fill="rgb(69.410706%, 82.351685%, 90.586853%)" fill-opacity="1" stroke-width="0.59776" stroke-linecap="butt" stroke-linejoin="miter" stroke="rgb(75%, 0%, 25%)" stroke-opacity="1" stroke-miterlimit="10" d="M -11.338625 -11.33725 L 11.337156 -11.33725 L 11.337156 11.338531 L -11.338625 11.338531 Z M -11.338625 -11.33725 " transform="matrix(1, 0, 0, -1, 107.323, 38.694)"/>
<path fill-rule="nonzero" fill="rgb(33.332825%, 62.353516%, 80.39093%)" fill-opacity="1" stroke-width="0.59776" stroke-linecap="butt" stroke-linejoin="miter" stroke="rgb(75%, 0%, 25%)" stroke-opacity="1" stroke-miterlimit="10" d="M -11.339625 -11.33725 L 11.340062 -11.33725 L 11.340062 11.338531 L -11.339625 11.338531 Z M -11.339625 -11.33725 " transform="matrix(1, 0, 0, -1, 130.199, 38.694)"/>
<path fill-rule="nonzero" fill="rgb(33.332825%, 62.353516%, 80.39093%)" fill-opacity="1" stroke-width="0.59776" stroke-linecap="butt" stroke-linejoin="miter" stroke="rgb(75%, 0%, 25%)" stroke-opacity="1" stroke-miterlimit="10" d="M -11.337719 -11.33725 L 11.338062 -11.33725 L 11.338062 11.338531 L -11.337719 11.338531 Z M -11.337719 -11.33725 " transform="matrix(1, 0, 0, -1, 153.076, 38.694)"/>
<path fill-rule="nonzero" fill="rgb(7.450867%, 37.644958%, 65.489197%)" fill-opacity="1" stroke-width="0.59776" stroke-linecap="butt" stroke-linejoin="miter" stroke="rgb(75%, 0%, 25%)" stroke-opacity="1" stroke-miterlimit="10" d="M -11.338719 -11.33725 L 11.337062 -11.33725 L 11.337062 11.338531 L -11.338719 11.338531 Z M -11.338719 -11.33725 " transform="matrix(1, 0, 0, -1, 175.952, 38.694)"/>
<path fill-rule="nonzero" fill="rgb(7.450867%, 37.644958%, 65.489197%)" fill-opacity="1" stroke-width="0.59776" stroke-linecap="butt" stroke-linejoin="miter" stroke="rgb(75%, 0%, 25%)" stroke-opacity="1" stroke-miterlimit="10" d="M -11.340438 -11.340156 L 11.33925 -11.340156 L 11.33925 11.339531 L -11.340438 11.339531 Z M -11.340438 -11.340156 " transform="matrix(1, 0, 0, -1, 15.817, 61.57)"/>
<path fill-rule="nonzero" fill="rgb(91.764832%, 94.900513%, 98.039246%)" fill-opacity="1" stroke-width="0.59776" stroke-linecap="butt" stroke-linejoin="miter" stroke="rgb(75%, 0%, 25%)" stroke-opacity="1" stroke-miterlimit="10" d="M -11.337531 -11.340156 L 11.33825 -11.340156 L 11.33825 11.339531 L -11.337531 11.339531 Z M -11.337531 -11.340156 " transform="matrix(1, 0, 0, -1, 38.693, 61.57)"/>
<path fill-rule="nonzero" fill="rgb(91.764832%, 94.900513%, 98.039246%)" fill-opacity="1" stroke-width="0.59776" stroke-linecap="butt" stroke-linejoin="miter" stroke="rgb(75%, 0%, 25%)" stroke-opacity="1" stroke-miterlimit="10" d="M -11.339531 -11.340156 L 11.340156 -11.340156 L 11.340156 11.339531 L -11.339531 11.339531 Z M -11.339531 -11.340156 " transform="matrix(1, 0, 0, -1, 61.57, 61.57)"/>
<path fill-rule="nonzero" fill="rgb(69.410706%, 82.351685%, 90.586853%)" fill-opacity="1" stroke-width="0.59776" stroke-linecap="butt" stroke-linejoin="miter" stroke="rgb(75%, 0%, 25%)" stroke-opacity="1" stroke-miterlimit="10" d="M -11.340531 -11.340156 L 11.339156 -11.340156 L 11.339156 11.339531 L -11.340531 11.339531 Z M -11.340531 -11.340156 " transform="matrix(1, 0, 0, -1, 84.446, 61.57)"/>
<path fill-rule="nonzero" fill="rgb(69.410706%, 82.351685%, 90.586853%)" fill-opacity="1" stroke-width="0.59776" stroke-linecap="butt" stroke-linejoin="miter" stroke="rgb(75%, 0%, 25%)" stroke-opacity="1" stroke-miterlimit="10" d="M -11.338625 -11.340156 L 11.337156 -11.340156 L 11.337156 11.339531 L -11.338625 11.339531 Z M -11.338625 -11.340156 " transform="matrix(1, 0, 0, -1, 107.323, 61.57)"/>
<path fill-rule="nonzero" fill="rgb(33.332825%, 62.353516%, 80.39093%)" fill-opacity="1" stroke-width="0.59776" stroke-linecap="butt" stroke-linejoin="miter" stroke="rgb(75%, 0%, 25%)" stroke-opacity="1" stroke-miterlimit="10" d="M -11.339625 -11.340156 L 11.340062 -11.340156 L 11.340062 11.339531 L -11.339625 11.339531 Z M -11.339625 -11.340156 " transform="matrix(1, 0, 0, -1, 130.199, 61.57)"/>
<path fill-rule="nonzero" fill="rgb(33.332825%, 62.353516%, 80.39093%)" fill-opacity="1" stroke-width="0.59776" stroke-linecap="butt" stroke-linejoin="miter" stroke="rgb(75%, 0%, 25%)" stroke-opacity="1" stroke-miterlimit="10" d="M -11.337719 -11.340156 L 11.338062 -11.340156 L 11.338062 11.339531 L -11.337719 11.339531 Z M -11.337719 -11.340156 " transform="matrix(1, 0, 0, -1, 153.076, 61.57)"/>
<path fill-rule="nonzero" fill="rgb(7.450867%, 37.644958%, 65.489197%)" fill-opacity="1" stroke-width="0.59776" stroke-linecap="butt" stroke-linejoin="miter" stroke="rgb(75%, 0%, 25%)" stroke-opacity="1" stroke-miterlimit="10" d="M -11.338719 -11.340156 L 11.337062 -11.340156 L 11.337062 11.339531 L -11.338719 11.339531 Z M -11.338719 -11.340156 " transform="matrix(1, 0, 0, -1, 175.952, 61.57)"/>
<path fill-rule="nonzero" fill="rgb(3.135681%, 31.373596%, 60.392761%)" fill-opacity="1" stroke-width="0.59776" stroke-linecap="butt" stroke-linejoin="miter" stroke="rgb(75%, 0%, 25%)" stroke-opacity="1" stroke-miterlimit="10" d="M -11.340438 -11.338156 L 11.33925 -11.338156 L 11.33925 11.337625 L -11.340438 11.337625 Z M -11.340438 -11.338156 " transform="matrix(1, 0, 0, -1, 15.817, 84.447)"/>
<path fill-rule="nonzero" fill="rgb(86.66687%, 91.764832%, 96.470642%)" fill-opacity="1" stroke-width="0.59776" stroke-linecap="butt" stroke-linejoin="miter" stroke="rgb(75%, 0%, 25%)" stroke-opacity="1" stroke-miterlimit="10" d="M -11.337531 -11.338156 L 11.33825 -11.338156 L 11.33825 11.337625 L -11.337531 11.337625 Z M -11.337531 -11.338156 " transform="matrix(1, 0, 0, -1, 38.693, 84.447)"/>
<path fill-rule="nonzero" fill="rgb(86.66687%, 91.764832%, 96.470642%)" fill-opacity="1" stroke-width="0.59776" stroke-linecap="butt" stroke-linejoin="miter" stroke="rgb(75%, 0%, 25%)" stroke-opacity="1" stroke-miterlimit="10" d="M -11.339531 -11.338156 L 11.340156 -11.338156 L 11.340156 11.337625 L -11.339531 11.337625 Z M -11.339531 -11.338156 " transform="matrix(1, 0, 0, -1, 61.57, 84.447)"/>
<path fill-rule="nonzero" fill="rgb(61.567688%, 78.823853%, 87.841797%)" fill-opacity="1" stroke-width="0.59776" stroke-linecap="butt" stroke-linejoin="miter" stroke="rgb(75%, 0%, 25%)" stroke-opacity="1" stroke-miterlimit="10" d="M -11.340531 -11.338156 L 11.339156 -11.338156 L 11.339156 11.337625 L -11.340531 11.337625 Z M -11.340531 -11.338156 " transform="matrix(1, 0, 0, -1, 84.446, 84.447)"/>
<path fill-rule="nonzero" fill="rgb(61.567688%, 78.823853%, 87.841797%)" fill-opacity="1" stroke-width="0.59776" stroke-linecap="butt" stroke-linejoin="miter" stroke="rgb(75%, 0%, 25%)" stroke-opacity="1" stroke-miterlimit="10" d="M -11.338625 -11.338156 L 11.337156 -11.338156 L 11.337156 11.337625 L -11.338625 11.337625 Z M -11.338625 -11.338156 " transform="matrix(1, 0, 0, -1, 107.323, 84.447)"/>
<path fill-rule="nonzero" fill="rgb(25.489807%, 56.861877%, 77.253723%)" fill-opacity="1" stroke-width="0.59776" stroke-linecap="butt" stroke-linejoin="miter" stroke="rgb(75%, 0%, 25%)" stroke-opacity="1" stroke-miterlimit="10" d="M -11.339625 -11.338156 L 11.340062 -11.338156 L 11.340062 11.337625 L -11.339625 11.337625 Z M -11.339625 -11.338156 " transform="matrix(1, 0, 0, -1, 130.199, 84.447)"/>
<path fill-rule="nonzero" fill="rgb(25.489807%, 56.861877%, 77.253723%)" fill-opacity="1" stroke-width="0.59776" stroke-linecap="butt" stroke-linejoin="miter" stroke="rgb(75%, 0%, 25%)" stroke-opacity="1" stroke-miterlimit="10" d="M -11.337719 -11.338156 L 11.338062 -11.338156 L 11.338062 11.337625 L -11.337719 11.337625 Z M -11.337719 -11.338156 " transform="matrix(1, 0, 0, -1, 153.076, 84.447)"/>
<path fill-rule="nonzero" fill="rgb(3.135681%, 31.373596%, 60.392761%)" fill-opacity="1" stroke-width="0.59776" stroke-linecap="butt" stroke-linejoin="miter" stroke="rgb(75%, 0%, 25%)" stroke-opacity="1" stroke-miterlimit="10" d="M -11.338719 -11.338156 L 11.337062 -11.338156 L 11.337062 11.337625 L -11.338719 11.337625 Z M -11.338719 -11.338156 " transform="matrix(1, 0, 0, -1, 175.952, 84.447)"/>
<path fill-rule="nonzero" fill="rgb(3.135681%, 31.373596%, 60.392761%)" fill-opacity="1" stroke-width="0.59776" stroke-linecap="butt" stroke-linejoin="miter" stroke="rgb(75%, 0%, 25%)" stroke-opacity="1" stroke-miterlimit="10" d="M -11.340438 -11.337156 L 11.33925 -11.337156 L 11.33925 11.338625 L -11.340438 11.338625 Z M -11.340438 -11.337156 " transform="matrix(1, 0, 0, -1, 15.817, 107.323)"/>
<path fill-rule="nonzero" fill="rgb(86.66687%, 91.764832%, 96.470642%)" fill-opacity="1" stroke-width="0.59776" stroke-linecap="butt" stroke-linejoin="miter" stroke="rgb(75%, 0%, 25%)" stroke-opacity="1" stroke-miterlimit="10" d="M -11.337531 -11.337156 L 11.33825 -11.337156 L 11.33825 11.338625 L -11.337531 11.338625 Z M -11.337531 -11.337156 " transform="matrix(1, 0, 0, -1, 38.693, 107.323)"/>
<path fill-rule="nonzero" fill="rgb(86.66687%, 91.764832%, 96.470642%)" fill-opacity="1" stroke-width="0.59776" stroke-linecap="butt" stroke-linejoin="miter" stroke="rgb(75%, 0%, 25%)" stroke-opacity="1" stroke-miterlimit="10" d="M -11.339531 -11.337156 L 11.340156 -11.337156 L 11.340156 11.338625 L -11.339531 11.338625 Z M -11.339531 -11.337156 " transform="matrix(1, 0, 0, -1, 61.57, 107.323)"/>
<path fill-rule="nonzero" fill="rgb(61.567688%, 78.823853%, 87.841797%)" fill-opacity="1" stroke-width="0.59776" stroke-linecap="butt" stroke-linejoin="miter" stroke="rgb(75%, 0%, 25%)" stroke-opacity="1" stroke-miterlimit="10" d="M -11.340531 -11.337156 L 11.339156 -11.337156 L 11.339156 11.338625 L -11.340531 11.338625 Z M -11.340531 -11.337156 " transform="matrix(1, 0, 0, -1, 84.446, 107.323)"/>
<path fill-rule="nonzero" fill="rgb(61.567688%, 78.823853%, 87.841797%)" fill-opacity="1" stroke-width="0.59776" stroke-linecap="butt" stroke-linejoin="miter" stroke="rgb(75%, 0%, 25%)" stroke-opacity="1" stroke-miterlimit="10" d="M -11.338625 -11.337156 L 11.337156 -11.337156 L 11.337156 11.338625 L -11.338625 11.338625 Z M -11.338625 -11.337156 " transform="matrix(1, 0, 0, -1, 107.323, 107.323)"/>
<path fill-rule="nonzero" fill="rgb(25.489807%, 56.861877%, 77.253723%)" fill-opacity="1" stroke-width="0.59776" stroke-linecap="butt" stroke-linejoin="miter" stroke="rgb(75%, 0%, 25%)" stroke-opacity="1" stroke-miterlimit="10" d="M -11.339625 -11.337156 L 11.340062 -11.337156 L 11.340062 11.338625 L -11.339625 11.338625 Z M -11.339625 -11.337156 " transform="matrix(1, 0, 0, -1, 130.199, 107.323)"/>
<path fill-rule="nonzero" fill="rgb(25.489807%, 56.861877%, 77.253723%)" fill-opacity="1" stroke-width="0.59776" stroke-linecap="butt" stroke-linejoin="miter" stroke="rgb(75%, 0%, 25%)" stroke-opacity="1" stroke-miterlimit="10" d="M -11.337719 -11.337156 L 11.338062 -11.337156 L 11.338062 11.338625 L -11.337719 11.338625 Z M -11.337719 -11.337156 " transform="matrix(1, 0, 0, -1, 153.076, 107.323)"/>
<path fill-rule="nonzero" fill="rgb(3.135681%, 31.373596%, 60.392761%)" fill-opacity="1" stroke-width="0.59776" stroke-linecap="butt" stroke-linejoin="miter" stroke="rgb(75%, 0%, 25%)" stroke-opacity="1" stroke-miterlimit="10" d="M -11.338719 -11.337156 L 11.337062 -11.337156 L 11.337062 11.338625 L -11.338719 11.338625 Z M -11.338719 -11.337156 " transform="matrix(1, 0, 0, -1, 175.952, 107.323)"/>
<path fill-rule="nonzero" fill="rgb(3.135681%, 24.705505%, 50.979614%)" fill-opacity="1" stroke-width="0.59776" stroke-linecap="butt" stroke-linejoin="miter" stroke="rgb(75%, 0%, 25%)" stroke-opacity="1" stroke-miterlimit="10" d="M -11.340438 -11.339062 L 11.33925 -11.339062 L 11.33925 11.340625 L -11.340438 11.340625 Z M -11.340438 -11.339062 " transform="matrix(1, 0, 0, -1, 15.817, 130.2)"/>
<path fill-rule="nonzero" fill="rgb(81.959534%, 88.627625%, 94.900513%)" fill-opacity="1" stroke-width="0.59776" stroke-linecap="butt" stroke-linejoin="miter" stroke="rgb(75%, 0%, 25%)" stroke-opacity="1" stroke-miterlimit="10" d="M -11.337531 -11.339062 L 11.33825 -11.339062 L 11.33825 11.340625 L -11.337531 11.340625 Z M -11.337531 -11.339062 " transform="matrix(1, 0, 0, -1, 38.693, 130.2)"/>
<path fill-rule="nonzero" fill="rgb(81.959534%, 88.627625%, 94.900513%)" fill-opacity="1" stroke-width="0.59776" stroke-linecap="butt" stroke-linejoin="miter" stroke="rgb(75%, 0%, 25%)" stroke-opacity="1" stroke-miterlimit="10" d="M -11.339531 -11.339062 L 11.340156 -11.339062 L 11.340156 11.340625 L -11.339531 11.340625 Z M -11.339531 -11.339062 " transform="matrix(1, 0, 0, -1, 61.57, 130.2)"/>
<path fill-rule="nonzero" fill="rgb(51.371765%, 73.33374%, 85.882568%)" fill-opacity="1" stroke-width="0.59776" stroke-linecap="butt" stroke-linejoin="miter" stroke="rgb(75%, 0%, 25%)" stroke-opacity="1" stroke-miterlimit="10" d="M -11.340531 -11.339062 L 11.339156 -11.339062 L 11.339156 11.340625 L -11.340531 11.340625 Z M -11.340531 -11.339062 " transform="matrix(1, 0, 0, -1, 84.446, 130.2)"/>
<path fill-rule="nonzero" fill="rgb(51.371765%, 73.33374%, 85.882568%)" fill-opacity="1" stroke-width="0.59776" stroke-linecap="butt" stroke-linejoin="miter" stroke="rgb(75%, 0%, 25%)" stroke-opacity="1" stroke-miterlimit="10" d="M -11.338625 -11.339062 L 11.337156 -11.339062 L 11.337156 11.340625 L -11.338625 11.340625 Z M -11.338625 -11.339062 " transform="matrix(1, 0, 0, -1, 107.323, 130.2)"/>
<path fill-rule="nonzero" fill="rgb(18.824768%, 50.193787%, 74.116516%)" fill-opacity="1" stroke-width="0.59776" stroke-linecap="butt" stroke-linejoin="miter" stroke="rgb(75%, 0%, 25%)" stroke-opacity="1" stroke-miterlimit="10" d="M -11.339625 -11.339062 L 11.340062 -11.339062 L 11.340062 11.340625 L -11.339625 11.340625 Z M -11.339625 -11.339062 " transform="matrix(1, 0, 0, -1, 130.199, 130.2)"/>
<path fill-rule="nonzero" fill="rgb(18.824768%, 50.193787%, 74.116516%)" fill-opacity="1" stroke-width="0.59776" stroke-linecap="butt" stroke-linejoin="miter" stroke="rgb(75%, 0%, 25%)" stroke-opacity="1" stroke-miterlimit="10" d="M -11.337719 -11.339062 L 11.338062 -11.339062 L 11.338062 11.340625 L -11.337719 11.340625 Z M -11.337719 -11.339062 " transform="matrix(1, 0, 0, -1, 153.076, 130.2)"/>
<path fill-rule="nonzero" fill="rgb(3.135681%, 24.705505%, 50.979614%)" fill-opacity="1" stroke-width="0.59776" stroke-linecap="butt" stroke-linejoin="miter" stroke="rgb(75%, 0%, 25%)" stroke-opacity="1" stroke-miterlimit="10" d="M -11.338719 -11.339062 L 11.337062 -11.339062 L 11.337062 11.340625 L -11.338719 11.340625 Z M -11.338719 -11.339062 " transform="matrix(1, 0, 0, -1, 175.952, 130.2)"/>
<path fill-rule="nonzero" fill="rgb(3.135681%, 24.705505%, 50.979614%)" fill-opacity="1" stroke-width="0.59776" stroke-linecap="butt" stroke-linejoin="miter" stroke="rgb(75%, 0%, 25%)" stroke-opacity="1" stroke-miterlimit="10" d="M -11.340438 -11.338062 L 11.33925 -11.338062 L 11.33925 11.337719 L -11.340438 11.337719 Z M -11.340438 -11.338062 " transform="matrix(1, 0, 0, -1, 15.817, 153.076)"/>
<path fill-rule="nonzero" fill="rgb(81.959534%, 88.627625%, 94.900513%)" fill-opacity="1" stroke-width="0.59776" stroke-linecap="butt" stroke-linejoin="miter" stroke="rgb(75%, 0%, 25%)" stroke-opacity="1" stroke-miterlimit="10" d="M -11.337531 -11.338062 L 11.33825 -11.338062 L 11.33825 11.337719 L -11.337531 11.337719 Z M -11.337531 -11.338062 " transform="matrix(1, 0, 0, -1, 38.693, 153.076)"/>
<path fill-rule="nonzero" fill="rgb(81.959534%, 88.627625%, 94.900513%)" fill-opacity="1" stroke-width="0.59776" stroke-linecap="butt" stroke-linejoin="miter" stroke="rgb(75%, 0%, 25%)" stroke-opacity="1" stroke-miterlimit="10" d="M -11.339531 -11.338062 L 11.340156 -11.338062 L 11.340156 11.337719 L -11.339531 11.337719 Z M -11.339531 -11.338062 " transform="matrix(1, 0, 0, -1, 61.57, 153.076)"/>
<path fill-rule="nonzero" fill="rgb(51.371765%, 73.33374%, 85.882568%)" fill-opacity="1" stroke-width="0.59776" stroke-linecap="butt" stroke-linejoin="miter" stroke="rgb(75%, 0%, 25%)" stroke-opacity="1" stroke-miterlimit="10" d="M -11.340531 -11.338062 L 11.339156 -11.338062 L 11.339156 11.337719 L -11.340531 11.337719 Z M -11.340531 -11.338062 " transform="matrix(1, 0, 0, -1, 84.446, 153.076)"/>
<path fill-rule="nonzero" fill="rgb(51.371765%, 73.33374%, 85.882568%)" fill-opacity="1" stroke-width="0.59776" stroke-linecap="butt" stroke-linejoin="miter" stroke="rgb(75%, 0%, 25%)" stroke-opacity="1" stroke-miterlimit="10" d="M -11.338625 -11.338062 L 11.337156 -11.338062 L 11.337156 11.337719 L -11.338625 11.337719 Z M -11.338625 -11.338062 " transform="matrix(1, 0, 0, -1, 107.323, 153.076)"/>
<path fill-rule="nonzero" fill="rgb(18.824768%, 50.193787%, 74.116516%)" fill-opacity="1" stroke-width="0.59776" stroke-linecap="butt" stroke-linejoin="miter" stroke="rgb(75%, 0%, 25%)" stroke-opacity="1" stroke-miterlimit="10" d="M -11.339625 -11.338062 L 11.340062 -11.338062 L 11.340062 11.337719 L -11.339625 11.337719 Z M -11.339625 -11.338062 " transform="matrix(1, 0, 0, -1, 130.199, 153.076)"/>
<path fill-rule="nonzero" fill="rgb(18.824768%, 50.193787%, 74.116516%)" fill-opacity="1" stroke-width="0.59776" stroke-linecap="butt" stroke-linejoin="miter" stroke="rgb(75%, 0%, 25%)" stroke-opacity="1" stroke-miterlimit="10" d="M -11.337719 -11.338062 L 11.338062 -11.338062 L 11.338062 11.337719 L -11.337719 11.337719 Z M -11.337719 -11.338062 " transform="matrix(1, 0, 0, -1, 153.076, 153.076)"/>
<path fill-rule="nonzero" fill="rgb(3.135681%, 24.705505%, 50.979614%)" fill-opacity="1" stroke-width="0.59776" stroke-linecap="butt" stroke-linejoin="miter" stroke="rgb(75%, 0%, 25%)" stroke-opacity="1" stroke-miterlimit="10" d="M -11.338719 -11.338062 L 11.337062 -11.338062 L 11.337062 11.337719 L -11.338719 11.337719 Z M -11.338719 -11.338062 " transform="matrix(1, 0, 0, -1, 175.952, 153.076)"/>
<path fill-rule="nonzero" fill="rgb(3.135681%, 18.824768%, 41.96167%)" fill-opacity="1" stroke-width="0.59776" stroke-linecap="butt" stroke-linejoin="miter" stroke="rgb(75%, 0%, 25%)" stroke-opacity="1" stroke-miterlimit="10" d="M -11.340438 -11.339969 L 11.33925 -11.339969 L 11.33925 11.339719 L -11.340438 11.339719 Z M -11.340438 -11.339969 " transform="matrix(1, 0, 0, -1, 15.817, 175.953)"/>
<path fill-rule="nonzero" fill="rgb(77.253723%, 85.488892%, 93.331909%)" fill-opacity="1" stroke-width="0.59776" stroke-linecap="butt" stroke-linejoin="miter" stroke="rgb(75%, 0%, 25%)" stroke-opacity="1" stroke-miterlimit="10" d="M -11.337531 -11.339969 L 11.33825 -11.339969 L 11.33825 11.339719 L -11.337531 11.339719 Z M -11.337531 -11.339969 " transform="matrix(1, 0, 0, -1, 38.693, 175.953)"/>
<path fill-rule="nonzero" fill="rgb(77.253723%, 85.488892%, 93.331909%)" fill-opacity="1" stroke-width="0.59776" stroke-linecap="butt" stroke-linejoin="miter" stroke="rgb(75%, 0%, 25%)" stroke-opacity="1" stroke-miterlimit="10" d="M -11.339531 -11.339969 L 11.340156 -11.339969 L 11.340156 11.339719 L -11.339531 11.339719 Z M -11.339531 -11.339969 " transform="matrix(1, 0, 0, -1, 61.57, 175.953)"/>
<path fill-rule="nonzero" fill="rgb(41.569519%, 67.843628%, 83.529663%)" fill-opacity="1" stroke-width="0.59776" stroke-linecap="butt" stroke-linejoin="miter" stroke="rgb(75%, 0%, 25%)" stroke-opacity="1" stroke-miterlimit="10" d="M -11.340531 -11.339969 L 11.339156 -11.339969 L 11.339156 11.339719 L -11.340531 11.339719 Z M -11.340531 -11.339969 " transform="matrix(1, 0, 0, -1, 84.446, 175.953)"/>
<path fill-rule="nonzero" fill="rgb(41.569519%, 67.843628%, 83.529663%)" fill-opacity="1" stroke-width="0.59776" stroke-linecap="butt" stroke-linejoin="miter" stroke="rgb(75%, 0%, 25%)" stroke-opacity="1" stroke-miterlimit="10" d="M -11.338625 -11.339969 L 11.337156 -11.339969 L 11.337156 11.339719 L -11.338625 11.339719 Z M -11.338625 -11.339969 " transform="matrix(1, 0, 0, -1, 107.323, 175.953)"/>
<path fill-rule="nonzero" fill="rgb(12.548828%, 43.920898%, 70.588684%)" fill-opacity="1" stroke-width="0.59776" stroke-linecap="butt" stroke-linejoin="miter" stroke="rgb(75%, 0%, 25%)" stroke-opacity="1" stroke-miterlimit="10" d="M -11.339625 -11.339969 L 11.340062 -11.339969 L 11.340062 11.339719 L -11.339625 11.339719 Z M -11.339625 -11.339969 " transform="matrix(1, 0, 0, -1, 130.199, 175.953)"/>
<path fill-rule="nonzero" fill="rgb(12.548828%, 43.920898%, 70.588684%)" fill-opacity="1" stroke-width="0.59776" stroke-linecap="butt" stroke-linejoin="miter" stroke="rgb(75%, 0%, 25%)" stroke-opacity="1" stroke-miterlimit="10" d="M -11.337719 -11.339969 L 11.338062 -11.339969 L 11.338062 11.339719 L -11.337719 11.339719 Z M -11.337719 -11.339969 " transform="matrix(1, 0, 0, -1, 153.076, 175.953)"/>
<path fill-rule="nonzero" fill="rgb(3.135681%, 18.824768%, 41.96167%)" fill-opacity="1" stroke-width="0.59776" stroke-linecap="butt" stroke-linejoin="miter" stroke="rgb(75%, 0%, 25%)" stroke-opacity="1" stroke-miterlimit="10" d="M -11.338719 -11.339969 L 11.337062 -11.339969 L 11.337062 11.339719 L -11.338719 11.339719 Z M -11.338719 -11.339969 " transform="matrix(1, 0, 0, -1, 175.952, 175.953)"/>
<path fill="none" stroke-width="1.19553" stroke-linecap="butt" stroke-linejoin="miter" stroke="rgb(0%, 0%, 0%)" stroke-opacity="1" stroke-miterlimit="10" d="M -91.407438 91.408438 L 91.408969 91.408438 " transform="matrix(1, 0, 0, -1, 95.884, 95.885)"/>
<path fill="none" stroke-width="1.19553" stroke-linecap="butt" stroke-linejoin="miter" stroke="rgb(0%, 0%, 0%)" stroke-opacity="1" stroke-miterlimit="10" d="M -91.407438 91.408438 L -91.407438 -91.407969 " transform="matrix(1, 0, 0, -1, 95.884, 95.885)"/>
<path fill="none" stroke-width="1.19553" stroke-linecap="butt" stroke-linejoin="miter" stroke="rgb(0%, 0%, 0%)" stroke-opacity="1" stroke-miterlimit="10" d="M -91.407438 -91.407969 L 91.408969 -91.407969 " transform="matrix(1, 0, 0, -1, 95.884, 95.885)"/>
<path fill="none" stroke-width="1.19553" stroke-linecap="butt" stroke-linejoin="miter" stroke="rgb(0%, 0%, 0%)" stroke-opacity="1" stroke-miterlimit="10" d="M 91.408969 91.408438 L 91.408969 -91.407969 " transform="matrix(1, 0, 0, -1, 95.884, 95.885)"/>
<path fill="none" stroke-width="1.19553" stroke-linecap="butt" stroke-linejoin="miter" stroke="rgb(0%, 0%, 0%)" stroke-opacity="1" stroke-miterlimit="10" d="M -91.407438 45.85375 L 91.408969 45.85375 " transform="matrix(1, 0, 0, -1, 95.884, 95.885)"/>
<path fill="none" stroke-width="1.19553" stroke-linecap="butt" stroke-linejoin="miter" stroke="rgb(0%, 0%, 0%)" stroke-opacity="1" stroke-miterlimit="10" d="M -91.407438 0.0998438 L 91.408969 0.0998438 " transform="matrix(1, 0, 0, -1, 95.884, 95.885)"/>
<path fill="none" stroke-width="1.19553" stroke-linecap="butt" stroke-linejoin="miter" stroke="rgb(0%, 0%, 0%)" stroke-opacity="1" stroke-miterlimit="10" d="M -91.407438 -45.654062 L 91.408969 -45.654062 " transform="matrix(1, 0, 0, -1, 95.884, 95.885)"/>
<path fill="none" stroke-width="1.19553" stroke-linecap="butt" stroke-linejoin="miter" stroke="rgb(0%, 0%, 0%)" stroke-opacity="1" stroke-miterlimit="10" d="M -45.85275 91.408438 L -45.85275 -91.407969 " transform="matrix(1, 0, 0, -1, 95.884, 95.885)"/>
<path fill="none" stroke-width="1.19553" stroke-linecap="butt" stroke-linejoin="miter" stroke="rgb(0%, 0%, 0%)" stroke-opacity="1" stroke-miterlimit="10" d="M -0.0988438 91.408438 L -0.0988438 -91.407969 " transform="matrix(1, 0, 0, -1, 95.884, 95.885)"/>
<path fill="none" stroke-width="1.19553" stroke-linecap="butt" stroke-linejoin="miter" stroke="rgb(0%, 0%, 0%)" stroke-opacity="1" stroke-miterlimit="10" d="M 45.655062 91.408438 L 45.655062 -91.407969 " transform="matrix(1, 0, 0, -1, 95.884, 95.885)"/>
</svg>
