<?xml version="1.0" encoding="UTF-8"?>
<svg xmlns="http://www.w3.org/2000/svg" xmlns:xlink="http://www.w3.org/1999/xlink" width="68.514pt" height="187.569pt" viewBox="0 0 68.514 187.569">
<path fill-rule="nonzero" fill="rgb(100%, 88.233948%, 88.233948%)" fill-opacity="1" d="M 4.777344 138.003906 L 4.777344 123.832031 L 18.949219 123.832031 L 18.949219 138.003906 Z M 4.777344 138.003906 "/>
<path fill-rule="nonzero" fill="rgb(100%, 82.351685%, 82.351685%)" fill-opacity="1" d="M 18.949219 138.003906 L 18.949219 123.832031 L 33.125 123.832031 L 33.125 138.003906 Z M 18.949219 138.003906 "/>
<path fill-rule="nonzero" fill="rgb(98.039246%, 58.822632%, 58.822632%)" fill-opacity="1" d="M 33.125 138.003906 L 33.125 123.832031 L 47.296875 123.832031 L 47.296875 138.003906 Z M 33.125 138.003906 "/>
<path fill-rule="nonzero" fill="rgb(90.194702%, 50.979614%, 50.979614%)" fill-opacity="1" d="M 47.296875 138.003906 L 47.296875 123.832031 L 61.46875 123.832031 L 61.46875 138.003906 Z M 47.296875 138.003906 "/>
<path fill-rule="nonzero" fill="rgb(100%, 84.313965%, 84.313965%)" fill-opacity="1" d="M 4.777344 152.175781 L 4.777344 138.003906 L 18.949219 138.003906 L 18.949219 152.175781 Z M 4.777344 152.175781 "/>
<path fill-rule="nonzero" fill="rgb(100%, 78.431702%, 78.431702%)" fill-opacity="1" d="M 18.949219 152.175781 L 18.949219 138.003906 L 33.125 138.003906 L 33.125 152.175781 Z M 18.949219 152.175781 "/>
<path fill-rule="nonzero" fill="rgb(94.119263%, 54.902649%, 54.902649%)" fill-opacity="1" d="M 33.125 152.175781 L 33.125 138.003906 L 47.296875 138.003906 L 47.296875 152.175781 Z M 33.125 152.175781 "/>
<path fill-rule="nonzero" fill="rgb(86.274719%, 47.059631%, 47.059631%)" fill-opacity="1" d="M 47.296875 152.175781 L 47.296875 138.003906 L 61.46875 138.003906 L 61.46875 152.175781 Z M 47.296875 152.175781 "/>
<path fill-rule="nonzero" fill="rgb(100%, 74.508667%, 74.508667%)" fill-opacity="1" d="M 4.777344 166.351562 L 4.777344 152.175781 L 18.949219 152.175781 L 18.949219 166.351562 Z M 4.777344 166.351562 "/>
<path fill-rule="nonzero" fill="rgb(100%, 66.665649%, 66.665649%)" fill-opacity="1" d="M 18.949219 166.351562 L 18.949219 152.175781 L 33.125 152.175781 L 33.125 166.351562 Z M 18.949219 166.351562 "/>
<path fill-rule="nonzero" fill="rgb(82.351685%, 43.136597%, 43.136597%)" fill-opacity="1" d="M 33.125 166.351562 L 33.125 152.175781 L 47.296875 152.175781 L 47.296875 166.351562 Z M 33.125 166.351562 "/>
<path fill-rule="nonzero" fill="rgb(74.508667%, 35.293579%, 35.293579%)" fill-opacity="1" d="M 47.296875 166.351562 L 47.296875 152.175781 L 61.46875 152.175781 L 61.46875 166.351562 Z M 47.296875 166.351562 "/>
<path fill-rule="nonzero" fill="rgb(100%, 70.588684%, 70.588684%)" fill-opacity="1" d="M 4.777344 180.523438 L 4.777344 166.351562 L 18.949219 166.351562 L 18.949219 180.523438 Z M 4.777344 180.523438 "/>
<path fill-rule="nonzero" fill="rgb(100%, 62.745667%, 62.745667%)" fill-opacity="1" d="M 18.949219 180.523438 L 18.949219 166.351562 L 33.125 166.351562 L 33.125 180.523438 Z M 18.949219 180.523438 "/>
<path fill-rule="nonzero" fill="rgb(78.431702%, 39.216614%, 39.216614%)" fill-opacity="1" d="M 33.125 180.523438 L 33.125 166.351562 L 47.296875 166.351562 L 47.296875 180.523438 Z M 33.125 180.523438 "/>
<path fill-rule="nonzero" fill="rgb(70.588684%, 31.373596%, 31.373596%)" fill-opacity="1" d="M 47.296875 180.523438 L 47.296875 166.351562 L 61.46875 166.351562 L 61.46875 180.523438 Z M 47.296875 180.523438 "/>
<path fill="none" stroke-width="0.3985" stroke-linecap="butt" stroke-linejoin="miter" stroke="rgb(9.999084%, 9.999084%, 9.999084%)" stroke-opacity="1" stroke-miterlimit="10" d="M 0.00034375 0.0005625 L 56.69175 0.0005625 M 0.00034375 14.172437 L 56.69175 14.172437 M 0.00034375 28.348219 L 56.69175 28.348219 M 0.00034375 42.520094 L 56.69175 42.520094 M 0.00034375 56.688062 L 56.69175 56.688062 M 0.00034375 0.0005625 L 0.00034375 56.691969 M 14.172219 0.0005625 L 14.172219 56.691969 M 28.348 0.0005625 L 28.348 56.691969 M 42.519875 0.0005625 L 42.519875 56.691969 M 56.687844 0.0005625 L 56.687844 56.691969 " transform="matrix(1, 0, 0, -1, 4.777, 180.524)"/>
<path fill="none" stroke-width="1.19553" stroke-linecap="butt" stroke-linejoin="miter" stroke="rgb(0%, 0%, 0%)" stroke-opacity="1" stroke-miterlimit="10" d="M 0.00034375 0.0005625 L 0.00034375 56.691969 L 56.69175 56.691969 L 56.69175 0.0005625 Z M 0.00034375 0.0005625 " transform="matrix(1, 0, 0, -1, 4.777, 180.524)"/>
<path fill="none" stroke-width="0.99628" stroke-linecap="butt" stroke-linejoin="miter" stroke="rgb(9.999084%, 9.999084%, 9.999084%)" stroke-opacity="1" stroke-dasharray="2.98883 2.98883" stroke-miterlimit="10" d="M 28.348 0.0005625 L 28.348 56.691969 " transform="matrix(1, 0, 0, -1, 4.777, 180.524)"/>
<path fill="none" stroke-width="0.99628" stroke-linecap="butt" stroke-linejoin="miter" stroke="rgb(9.999084%, 9.999084%, 9.999084%)" stroke-opacity="1" stroke-dasharray="2.98883 2.98883" stroke-miterlimit="10" d="M 0.00034375 28.348219 L 56.69175 28.348219 " transform="matrix(1, 0, 0, -1, 4.777, 180.524)"/>
<path fill-rule="nonzero" fill="rgb(88.233948%, 100%, 88.233948%)" fill-opacity="1" d="M 4.777344 78.476562 L 4.777344 64.304688 L 18.949219 64.304688 L 18.949219 78.476562 Z M 4.777344 78.476562 "/>
<path fill-rule="nonzero" fill="rgb(82.351685%, 100%, 82.351685%)" fill-opacity="1" d="M 18.949219 78.476562 L 18.949219 64.304688 L 33.125 64.304688 L 33.125 78.476562 Z M 18.949219 78.476562 "/>
<path fill-rule="nonzero" fill="rgb(58.822632%, 98.039246%, 58.822632%)" fill-opacity="1" d="M 33.125 78.476562 L 33.125 64.304688 L 47.296875 64.304688 L 47.296875 78.476562 Z M 33.125 78.476562 "/>
<path fill-rule="nonzero" fill="rgb(50.979614%, 90.194702%, 50.979614%)" fill-opacity="1" d="M 47.296875 78.476562 L 47.296875 64.304688 L 61.46875 64.304688 L 61.46875 78.476562 Z M 47.296875 78.476562 "/>
<path fill-rule="nonzero" fill="rgb(84.313965%, 100%, 84.313965%)" fill-opacity="1" d="M 4.777344 92.648438 L 4.777344 78.476562 L 18.949219 78.476562 L 18.949219 92.648438 Z M 4.777344 92.648438 "/>
<path fill-rule="nonzero" fill="rgb(78.431702%, 100%, 78.431702%)" fill-opacity="1" d="M 18.949219 92.648438 L 18.949219 78.476562 L 33.125 78.476562 L 33.125 92.648438 Z M 18.949219 92.648438 "/>
<path fill-rule="nonzero" fill="rgb(54.902649%, 94.119263%, 54.902649%)" fill-opacity="1" d="M 33.125 92.648438 L 33.125 78.476562 L 47.296875 78.476562 L 47.296875 92.648438 Z M 33.125 92.648438 "/>
<path fill-rule="nonzero" fill="rgb(47.059631%, 86.274719%, 47.059631%)" fill-opacity="1" d="M 47.296875 92.648438 L 47.296875 78.476562 L 61.46875 78.476562 L 61.46875 92.648438 Z M 47.296875 92.648438 "/>
<path fill-rule="nonzero" fill="rgb(74.508667%, 100%, 74.508667%)" fill-opacity="1" d="M 4.777344 106.824219 L 4.777344 92.648438 L 18.949219 92.648438 L 18.949219 106.824219 Z M 4.777344 106.824219 "/>
<path fill-rule="nonzero" fill="rgb(66.665649%, 100%, 66.665649%)" fill-opacity="1" d="M 18.949219 106.824219 L 18.949219 92.648438 L 33.125 92.648438 L 33.125 106.824219 Z M 18.949219 106.824219 "/>
<path fill-rule="nonzero" fill="rgb(43.136597%, 82.351685%, 43.136597%)" fill-opacity="1" d="M 33.125 106.824219 L 33.125 92.648438 L 47.296875 92.648438 L 47.296875 106.824219 Z M 33.125 106.824219 "/>
<path fill-rule="nonzero" fill="rgb(35.293579%, 74.508667%, 35.293579%)" fill-opacity="1" d="M 47.296875 106.824219 L 47.296875 92.648438 L 61.46875 92.648438 L 61.46875 106.824219 Z M 47.296875 106.824219 "/>
<path fill-rule="nonzero" fill="rgb(70.588684%, 100%, 70.588684%)" fill-opacity="1" d="M 4.777344 120.996094 L 4.777344 106.824219 L 18.949219 106.824219 L 18.949219 120.996094 Z M 4.777344 120.996094 "/>
<path fill-rule="nonzero" fill="rgb(62.745667%, 100%, 62.745667%)" fill-opacity="1" d="M 18.949219 120.996094 L 18.949219 106.824219 L 33.125 106.824219 L 33.125 120.996094 Z M 18.949219 120.996094 "/>
<path fill-rule="nonzero" fill="rgb(39.216614%, 78.431702%, 39.216614%)" fill-opacity="1" d="M 33.125 120.996094 L 33.125 106.824219 L 47.296875 106.824219 L 47.296875 120.996094 Z M 33.125 120.996094 "/>
<path fill-rule="nonzero" fill="rgb(31.373596%, 70.588684%, 31.373596%)" fill-opacity="1" d="M 47.296875 120.996094 L 47.296875 106.824219 L 61.46875 106.824219 L 61.46875 120.996094 Z M 47.296875 120.996094 "/>
<path fill="none" stroke-width="0.3985" stroke-linecap="butt" stroke-linejoin="miter" stroke="rgb(9.999084%, 9.999084%, 9.999084%)" stroke-opacity="1" stroke-miterlimit="10" d="M 0.00034375 0.00090625 L 56.69175 0.00090625 M 0.00034375 14.172781 L 56.69175 14.172781 M 0.00034375 28.348562 L 56.69175 28.348562 M 0.00034375 42.520437 L 56.69175 42.520437 M 0.00034375 56.688406 L 56.69175 56.688406 M 0.00034375 0.00090625 L 0.00034375 56.692312 M 14.172219 0.00090625 L 14.172219 56.692312 M 28.348 0.00090625 L 28.348 56.692312 M 42.519875 0.00090625 L 42.519875 56.692312 M 56.687844 0.00090625 L 56.687844 56.692312 " transform="matrix(1, 0, 0, -1, 4.777, 120.997)"/>
<path fill="none" stroke-width="1.19553" stroke-linecap="butt" stroke-linejoin="miter" stroke="rgb(0%, 0%, 0%)" stroke-opacity="1" stroke-miterlimit="10" d="M 0.00034375 0.00090625 L 0.00034375 56.692312 L 56.69175 56.692312 L 56.69175 0.00090625 Z M 0.00034375 0.00090625 " transform="matrix(1, 0, 0, -1, 4.777, 120.997)"/>
<path fill="none" stroke-width="0.99628" stroke-linecap="butt" stroke-linejoin="miter" stroke="rgb(9.999084%, 9.999084%, 9.999084%)" stroke-opacity="1" stroke-dasharray="2.98883 2.98883" stroke-miterlimit="10" d="M 28.348 0.00090625 L 28.348 56.692312 " transform="matrix(1, 0, 0, -1, 4.777, 120.997)"/>
<path fill="none" stroke-width="0.99628" stroke-linecap="butt" stroke-linejoin="miter" stroke="rgb(9.999084%, 9.999084%, 9.999084%)" stroke-opacity="1" stroke-dasharray="2.98883 2.98883" stroke-miterlimit="10" d="M 0.00034375 28.348562 L 56.69175 28.348562 " transform="matrix(1, 0, 0, -1, 4.777, 120.997)"/>
<path fill-rule="nonzero" fill="rgb(88.233948%, 88.233948%, 100%)" fill-opacity="1" d="M 4.777344 18.949219 L 4.777344 4.773438 L 18.949219 4.773438 L 18.949219 18.949219 Z M 4.777344 18.949219 "/>
<path fill-rule="nonzero" fill="rgb(82.351685%, 82.351685%, 100%)" fill-opacity="1" d="M 18.949219 18.949219 L 18.949219 4.773438 L 33.125 4.773438 L 33.125 18.949219 Z M 18.949219 18.949219 "/>
<path fill-rule="nonzero" fill="rgb(58.822632%, 58.822632%, 98.039246%)" fill-opacity="1" d="M 33.125 18.949219 L 33.125 4.773438 L 47.296875 4.773438 L 47.296875 18.949219 Z M 33.125 18.949219 "/>
<path fill-rule="nonzero" fill="rgb(50.979614%, 50.979614%, 90.194702%)" fill-opacity="1" d="M 47.296875 18.949219 L 47.296875 4.773438 L 61.46875 4.773438 L 61.46875 18.949219 Z M 47.296875 18.949219 "/>
<path fill-rule="nonzero" fill="rgb(84.313965%, 84.313965%, 100%)" fill-opacity="1" d="M 4.777344 33.121094 L 4.777344 18.949219 L 18.949219 18.949219 L 18.949219 33.121094 Z M 4.777344 33.121094 "/>
<path fill-rule="nonzero" fill="rgb(78.431702%, 78.431702%, 100%)" fill-opacity="1" d="M 18.949219 33.121094 L 18.949219 18.949219 L 33.125 18.949219 L 33.125 33.121094 Z M 18.949219 33.121094 "/>
<path fill-rule="nonzero" fill="rgb(54.902649%, 54.902649%, 94.119263%)" fill-opacity="1" d="M 33.125 33.121094 L 33.125 18.949219 L 47.296875 18.949219 L 47.296875 33.121094 Z M 33.125 33.121094 "/>
<path fill-rule="nonzero" fill="rgb(47.059631%, 47.059631%, 86.274719%)" fill-opacity="1" d="M 47.296875 33.121094 L 47.296875 18.949219 L 61.46875 18.949219 L 61.46875 33.121094 Z M 47.296875 33.121094 "/>
<path fill-rule="nonzero" fill="rgb(74.508667%, 74.508667%, 100%)" fill-opacity="1" d="M 4.777344 47.296875 L 4.777344 33.121094 L 18.949219 33.121094 L 18.949219 47.296875 Z M 4.777344 47.296875 "/>
<path fill-rule="nonzero" fill="rgb(66.665649%, 66.665649%, 100%)" fill-opacity="1" d="M 18.949219 47.296875 L 18.949219 33.121094 L 33.125 33.121094 L 33.125 47.296875 Z M 18.949219 47.296875 "/>
<path fill-rule="nonzero" fill="rgb(43.136597%, 43.136597%, 82.351685%)" fill-opacity="1" d="M 33.125 47.296875 L 33.125 33.121094 L 47.296875 33.121094 L 47.296875 47.296875 Z M 33.125 47.296875 "/>
<path fill-rule="nonzero" fill="rgb(35.293579%, 35.293579%, 74.508667%)" fill-opacity="1" d="M 47.296875 47.296875 L 47.296875 33.121094 L 61.46875 33.121094 L 61.46875 47.296875 Z M 47.296875 47.296875 "/>
<path fill-rule="nonzero" fill="rgb(70.588684%, 70.588684%, 100%)" fill-opacity="1" d="M 4.777344 61.46875 L 4.777344 47.296875 L 18.949219 47.296875 L 18.949219 61.46875 Z M 4.777344 61.46875 "/>
<path fill-rule="nonzero" fill="rgb(62.745667%, 62.745667%, 100%)" fill-opacity="1" d="M 18.949219 61.46875 L 18.949219 47.296875 L 33.125 47.296875 L 33.125 61.46875 Z M 18.949219 61.46875 "/>
<path fill-rule="nonzero" fill="rgb(39.216614%, 39.216614%, 78.431702%)" fill-opacity="1" d="M 33.125 61.46875 L 33.125 47.296875 L 47.296875 47.296875 L 47.296875 61.46875 Z M 33.125 61.46875 "/>
<path fill-rule="nonzero" fill="rgb(31.373596%, 31.373596%, 70.588684%)" fill-opacity="1" d="M 47.296875 61.46875 L 47.296875 47.296875 L 61.46875 47.296875 L 61.46875 61.46875 Z M 47.296875 61.46875 "/>
<path fill="none" stroke-width="0.3985" stroke-linecap="butt" stroke-linejoin="miter" stroke="rgb(9.999084%, 9.999084%, 9.999084%)" stroke-opacity="1" stroke-miterlimit="10" d="M 0.00034375 0.00025 L 56.69175 0.00025 M 0.00034375 14.172125 L 56.69175 14.172125 M 0.00034375 28.347906 L 56.69175 28.347906 M 0.00034375 42.519781 L 56.69175 42.519781 M 0.00034375 56.68775 L 56.69175 56.68775 M 0.00034375 0.00025 L 0.00034375 56.695562 M 14.172219 0.00025 L 14.172219 56.695562 M 28.348 0.00025 L 28.348 56.695562 M 42.519875 0.00025 L 42.519875 56.695562 M 56.687844 0.00025 L 56.687844 56.695562 " transform="matrix(1, 0, 0, -1, 4.777, 61.469)"/>
<path fill="none" stroke-width="1.19553" stroke-linecap="butt" stroke-linejoin="miter" stroke="rgb(0%, 0%, 0%)" stroke-opacity="1" stroke-miterlimit="10" d="M 0.00034375 0.00025 L 0.00034375 56.695562 L 56.69175 56.695562 L 56.69175 0.00025 Z M 0.00034375 0.00025 " transform="matrix(1, 0, 0, -1, 4.777, 61.469)"/>
<path fill="none" stroke-width="0.99628" stroke-linecap="butt" stroke-linejoin="miter" stroke="rgb(9.999084%, 9.999084%, 9.999084%)" stroke-opacity="1" stroke-dasharray="2.98883 2.98883" stroke-miterlimit="10" d="M 28.348 0.00025 L 28.348 56.695562 " transform="matrix(1, 0, 0, -1, 4.777, 61.469)"/>
<path fill="none" stroke-width="0.99628" stroke-linecap="butt" stroke-linejoin="miter" stroke="rgb(9.999084%, 9.999084%, 9.999084%)" stroke-opacity="1" stroke-dasharray="2.98883 2.98883" stroke-miterlimit="10" d="M 0.00034375 28.347906 L 56.69175 28.347906 " transform="matrix(1, 0, 0, -1, 4.777, 61.469)"/>
</svg>
