<?xml version="1.0" encoding="UTF-8"?>
<svg xmlns="http://www.w3.org/2000/svg" xmlns:xlink="http://www.w3.org/1999/xlink" width="100.615pt" height="133.828pt" viewBox="0 0 100.615 133.828">
<path fill="none" stroke-width="1.19553" stroke-linecap="round" stroke-linejoin="round" stroke="rgb(0%, 0%, 0%)" stroke-opacity="1" stroke-miterlimit="10" d="M 9.688531 -90.18775 C 41.903375 -86.726812 69.840875 -66.332281 82.95025 -36.699469 C 93.290094 -13.328375 93.290094 13.327875 82.95025 36.698969 " transform="matrix(1, 0, 0, -1, 1.456, 38.156)"/>
<path fill="none" stroke-width="0.49814" stroke-linecap="round" stroke-linejoin="round" stroke="rgb(64.704895%, 62.745667%, 80.39093%)" stroke-opacity="1" stroke-miterlimit="10" d="M 19.899469 -92.297125 L 19.899469 -82.094 L 30.1065 -82.094 L 30.1065 -92.297125 Z M 19.899469 -92.297125 " transform="matrix(1, 0, 0, -1, 1.456, 38.156)"/>
<path fill-rule="nonzero" fill="rgb(64.704895%, 62.745667%, 80.39093%)" fill-opacity="0.8" d="M 21.355469 130.453125 L 21.355469 120.25 L 31.5625 120.25 L 31.5625 130.453125 Z M 21.355469 130.453125 "/>
<path fill="none" stroke-width="0.49814" stroke-linecap="round" stroke-linejoin="round" stroke="rgb(64.704895%, 62.745667%, 80.39093%)" stroke-opacity="1" stroke-miterlimit="10" d="M 30.340875 -88.601812 L 30.340875 -78.394781 L 40.544 -78.394781 L 40.544 -88.601812 Z M 30.340875 -88.601812 " transform="matrix(1, 0, 0, -1, 1.456, 38.156)"/>
<path fill-rule="nonzero" fill="rgb(64.704895%, 62.745667%, 80.39093%)" fill-opacity="0.8" d="M 31.796875 126.757812 L 31.796875 116.550781 L 42 116.550781 L 42 126.757812 Z M 31.796875 126.757812 "/>
<path fill="none" stroke-width="0.49814" stroke-linecap="round" stroke-linejoin="round" stroke="rgb(64.704895%, 62.745667%, 80.39093%)" stroke-opacity="1" stroke-miterlimit="10" d="M 40.934625 -83.258062 L 40.934625 -73.051031 L 51.13775 -73.051031 L 51.13775 -83.258062 Z M 40.934625 -83.258062 " transform="matrix(1, 0, 0, -1, 1.456, 38.156)"/>
<path fill-rule="nonzero" fill="rgb(64.704895%, 62.745667%, 80.39093%)" fill-opacity="0.8" d="M 42.390625 121.414062 L 42.390625 111.207031 L 52.59375 111.207031 L 52.59375 121.414062 Z M 42.390625 121.414062 "/>
<path fill="none" stroke-width="0.49814" stroke-linecap="round" stroke-linejoin="round" stroke="rgb(64.704895%, 62.745667%, 80.39093%)" stroke-opacity="1" stroke-miterlimit="10" d="M 51.547906 -75.941656 L 51.547906 -65.734625 L 61.751031 -65.734625 L 61.751031 -75.941656 Z M 51.547906 -75.941656 " transform="matrix(1, 0, 0, -1, 1.456, 38.156)"/>
<path fill-rule="nonzero" fill="rgb(64.704895%, 62.745667%, 80.39093%)" fill-opacity="0.8" d="M 53.003906 114.097656 L 53.003906 103.890625 L 63.207031 103.890625 L 63.207031 114.097656 Z M 53.003906 114.097656 "/>
<path fill="none" stroke-width="0.49814" stroke-linecap="round" stroke-linejoin="round" stroke="rgb(64.704895%, 62.745667%, 80.39093%)" stroke-opacity="1" stroke-miterlimit="10" d="M 62.090875 -66.0315 L 62.090875 -55.824469 L 72.294 -55.824469 L 72.294 -66.0315 Z M 62.090875 -66.0315 " transform="matrix(1, 0, 0, -1, 1.456, 38.156)"/>
<path fill-rule="nonzero" fill="rgb(64.704895%, 62.745667%, 80.39093%)" fill-opacity="0.8" d="M 63.546875 104.1875 L 63.546875 93.980469 L 73.75 93.980469 L 73.75 104.1875 Z M 63.546875 104.1875 "/>
<path fill="none" stroke-width="0.49814" stroke-linecap="round" stroke-linejoin="round" stroke="rgb(64.704895%, 62.745667%, 80.39093%)" stroke-opacity="1" stroke-miterlimit="10" d="M 70.274469 -55.558844 L 70.274469 -45.355719 L 80.477594 -45.355719 L 80.477594 -55.558844 Z M 70.274469 -55.558844 " transform="matrix(1, 0, 0, -1, 1.456, 38.156)"/>
<path fill-rule="nonzero" fill="rgb(64.704895%, 62.745667%, 80.39093%)" fill-opacity="0.8" d="M 71.730469 93.714844 L 71.730469 83.511719 L 81.933594 83.511719 L 81.933594 93.714844 Z M 71.730469 93.714844 "/>
<path fill="none" stroke-width="0.49814" stroke-linecap="round" stroke-linejoin="round" stroke="rgb(64.704895%, 62.745667%, 80.39093%)" stroke-opacity="1" stroke-miterlimit="10" d="M 76.426812 -44.867437 L 76.426812 -34.660406 L 86.629937 -34.660406 L 86.629937 -44.867437 Z M 76.426812 -44.867437 " transform="matrix(1, 0, 0, -1, 1.456, 38.156)"/>
<path fill-rule="nonzero" fill="rgb(64.704895%, 62.745667%, 80.39093%)" fill-opacity="0.8" d="M 77.882812 83.023438 L 77.882812 72.816406 L 88.085938 72.816406 L 88.085938 83.023438 Z M 77.882812 83.023438 "/>
<path fill="none" stroke-width="0.49814" stroke-linecap="round" stroke-linejoin="round" stroke="rgb(64.704895%, 62.745667%, 80.39093%)" stroke-opacity="1" stroke-miterlimit="10" d="M 80.790094 -34.258062 L 80.790094 -24.054937 L 90.993219 -24.054937 L 90.993219 -34.258062 Z M 80.790094 -34.258062 " transform="matrix(1, 0, 0, -1, 1.456, 38.156)"/>
<path fill-rule="nonzero" fill="rgb(64.704895%, 62.745667%, 80.39093%)" fill-opacity="0.8" d="M 82.246094 72.414062 L 82.246094 62.210938 L 92.449219 62.210938 L 92.449219 72.414062 Z M 82.246094 72.414062 "/>
<path fill="none" stroke-width="0.49814" stroke-linecap="round" stroke-linejoin="round" stroke="rgb(64.704895%, 62.745667%, 80.39093%)" stroke-opacity="1" stroke-miterlimit="10" d="M 83.626031 -23.961187 L 83.626031 -13.758062 L 93.829156 -13.758062 L 93.829156 -23.961187 Z M 83.626031 -23.961187 " transform="matrix(1, 0, 0, -1, 1.456, 38.156)"/>
<path fill-rule="nonzero" fill="rgb(64.704895%, 62.745667%, 80.39093%)" fill-opacity="0.8" d="M 85.082031 62.117188 L 85.082031 51.914062 L 95.285156 51.914062 L 95.285156 62.117188 Z M 85.082031 62.117188 "/>
<path fill="none" stroke-width="0.49814" stroke-linecap="round" stroke-linejoin="round" stroke="rgb(64.704895%, 62.745667%, 80.39093%)" stroke-opacity="1" stroke-miterlimit="10" d="M 85.20025 -13.636969 L 85.20025 -3.433844 L 95.403375 -3.433844 L 95.403375 -13.636969 Z M 85.20025 -13.636969 " transform="matrix(1, 0, 0, -1, 1.456, 38.156)"/>
<path fill-rule="nonzero" fill="rgb(64.704895%, 62.745667%, 80.39093%)" fill-opacity="0.8" d="M 86.65625 51.792969 L 86.65625 41.589844 L 96.859375 41.589844 L 96.859375 51.792969 Z M 86.65625 51.792969 "/>
<path fill="none" stroke-width="0.49814" stroke-linecap="round" stroke-linejoin="round" stroke="rgb(64.704895%, 62.745667%, 80.39093%)" stroke-opacity="1" stroke-miterlimit="10" d="M 85.579156 -3.047125 L 85.579156 7.159906 L 95.782281 7.159906 L 95.782281 -3.047125 Z M 85.579156 -3.047125 " transform="matrix(1, 0, 0, -1, 1.456, 38.156)"/>
<path fill-rule="nonzero" fill="rgb(64.704895%, 62.745667%, 80.39093%)" fill-opacity="0.8" d="M 87.035156 41.203125 L 87.035156 30.996094 L 97.238281 30.996094 L 97.238281 41.203125 Z M 87.035156 41.203125 "/>
<path fill="none" stroke-width="0.49814" stroke-linecap="round" stroke-linejoin="round" stroke="rgb(64.704895%, 62.745667%, 80.39093%)" stroke-opacity="1" stroke-miterlimit="10" d="M 84.76275 7.206781 L 84.76275 17.409906 L 94.969781 17.409906 L 94.969781 7.206781 Z M 84.76275 7.206781 " transform="matrix(1, 0, 0, -1, 1.456, 38.156)"/>
<path fill-rule="nonzero" fill="rgb(64.704895%, 62.745667%, 80.39093%)" fill-opacity="0.8" d="M 86.21875 30.949219 L 86.21875 20.746094 L 96.425781 20.746094 L 96.425781 30.949219 Z M 86.21875 30.949219 "/>
<path fill="none" stroke-width="0.49814" stroke-linecap="round" stroke-linejoin="round" stroke="rgb(64.704895%, 62.745667%, 80.39093%)" stroke-opacity="1" stroke-miterlimit="10" d="M 82.715875 17.609125 L 82.715875 27.81225 L 92.919 27.81225 L 92.919 17.609125 Z M 82.715875 17.609125 " transform="matrix(1, 0, 0, -1, 1.456, 38.156)"/>
<path fill-rule="nonzero" fill="rgb(64.704895%, 62.745667%, 80.39093%)" fill-opacity="0.8" d="M 84.171875 20.546875 L 84.171875 10.34375 L 94.375 10.34375 L 94.375 20.546875 Z M 84.171875 20.546875 "/>
</svg>
