<?xml version="1.0" encoding="UTF-8"?>
<svg xmlns="http://www.w3.org/2000/svg" xmlns:xlink="http://www.w3.org/1999/xlink" width="68.514pt" height="181.701pt" viewBox="0 0 68.514 181.701">
<path fill-rule="nonzero" fill="rgb(100%, 88.233948%, 88.233948%)" fill-opacity="1" d="M 4.777344 75.542969 L 4.777344 61.371094 L 18.949219 61.371094 L 18.949219 75.542969 Z M 4.777344 75.542969 "/>
<path fill-rule="nonzero" fill="rgb(100%, 82.351685%, 82.351685%)" fill-opacity="1" d="M 18.949219 75.542969 L 18.949219 61.371094 L 33.125 61.371094 L 33.125 75.542969 Z M 18.949219 75.542969 "/>
<path fill-rule="nonzero" fill="rgb(98.039246%, 58.822632%, 58.822632%)" fill-opacity="1" d="M 33.125 75.542969 L 33.125 61.371094 L 47.296875 61.371094 L 47.296875 75.542969 Z M 33.125 75.542969 "/>
<path fill-rule="nonzero" fill="rgb(90.194702%, 50.979614%, 50.979614%)" fill-opacity="1" d="M 47.296875 75.542969 L 47.296875 61.371094 L 61.46875 61.371094 L 61.46875 75.542969 Z M 47.296875 75.542969 "/>
<path fill-rule="nonzero" fill="rgb(100%, 84.313965%, 84.313965%)" fill-opacity="1" d="M 4.777344 89.714844 L 4.777344 75.542969 L 18.949219 75.542969 L 18.949219 89.714844 Z M 4.777344 89.714844 "/>
<path fill-rule="nonzero" fill="rgb(100%, 78.431702%, 78.431702%)" fill-opacity="1" d="M 18.949219 89.714844 L 18.949219 75.542969 L 33.125 75.542969 L 33.125 89.714844 Z M 18.949219 89.714844 "/>
<path fill-rule="nonzero" fill="rgb(94.119263%, 54.902649%, 54.902649%)" fill-opacity="1" d="M 33.125 89.714844 L 33.125 75.542969 L 47.296875 75.542969 L 47.296875 89.714844 Z M 33.125 89.714844 "/>
<path fill-rule="nonzero" fill="rgb(86.274719%, 47.059631%, 47.059631%)" fill-opacity="1" d="M 47.296875 89.714844 L 47.296875 75.542969 L 61.46875 75.542969 L 61.46875 89.714844 Z M 47.296875 89.714844 "/>
<path fill-rule="nonzero" fill="rgb(100%, 74.508667%, 74.508667%)" fill-opacity="1" d="M 4.777344 103.890625 L 4.777344 89.714844 L 18.949219 89.714844 L 18.949219 103.890625 Z M 4.777344 103.890625 "/>
<path fill-rule="nonzero" fill="rgb(100%, 66.665649%, 66.665649%)" fill-opacity="1" d="M 18.949219 103.890625 L 18.949219 89.714844 L 33.125 89.714844 L 33.125 103.890625 Z M 18.949219 103.890625 "/>
<path fill-rule="nonzero" fill="rgb(82.351685%, 43.136597%, 43.136597%)" fill-opacity="1" d="M 33.125 103.890625 L 33.125 89.714844 L 47.296875 89.714844 L 47.296875 103.890625 Z M 33.125 103.890625 "/>
<path fill-rule="nonzero" fill="rgb(74.508667%, 35.293579%, 35.293579%)" fill-opacity="1" d="M 47.296875 103.890625 L 47.296875 89.714844 L 61.46875 89.714844 L 61.46875 103.890625 Z M 47.296875 103.890625 "/>
<path fill-rule="nonzero" fill="rgb(100%, 70.588684%, 70.588684%)" fill-opacity="1" d="M 4.777344 118.0625 L 4.777344 103.890625 L 18.949219 103.890625 L 18.949219 118.0625 Z M 4.777344 118.0625 "/>
<path fill-rule="nonzero" fill="rgb(100%, 62.745667%, 62.745667%)" fill-opacity="1" d="M 18.949219 118.0625 L 18.949219 103.890625 L 33.125 103.890625 L 33.125 118.0625 Z M 18.949219 118.0625 "/>
<path fill-rule="nonzero" fill="rgb(78.431702%, 39.216614%, 39.216614%)" fill-opacity="1" d="M 33.125 118.0625 L 33.125 103.890625 L 47.296875 103.890625 L 47.296875 118.0625 Z M 33.125 118.0625 "/>
<path fill-rule="nonzero" fill="rgb(70.588684%, 31.373596%, 31.373596%)" fill-opacity="1" d="M 47.296875 118.0625 L 47.296875 103.890625 L 61.46875 103.890625 L 61.46875 118.0625 Z M 47.296875 118.0625 "/>
<path fill="none" stroke-width="0.3985" stroke-linecap="butt" stroke-linejoin="miter" stroke="rgb(9.999084%, 9.999084%, 9.999084%)" stroke-opacity="1" stroke-miterlimit="10" d="M 0.00034375 0.0005 L 56.69175 0.0005 M 0.00034375 14.172375 L 56.69175 14.172375 M 0.00034375 28.348156 L 56.69175 28.348156 M 0.00034375 42.520031 L 56.69175 42.520031 M 0.00034375 56.688 L 56.69175 56.688 M 0.00034375 0.0005 L 0.00034375 56.691906 M 14.172219 0.0005 L 14.172219 56.691906 M 28.348 0.0005 L 28.348 56.691906 M 42.519875 0.0005 L 42.519875 56.691906 M 56.687844 0.0005 L 56.687844 56.691906 " transform="matrix(1, 0, 0, -1, 4.777, 118.063)"/>
<path fill="none" stroke-width="1.19553" stroke-linecap="butt" stroke-linejoin="miter" stroke="rgb(0%, 0%, 0%)" stroke-opacity="1" stroke-miterlimit="10" d="M 0.00034375 0.0005 L 0.00034375 56.691906 L 56.69175 56.691906 L 56.69175 0.0005 Z M 0.00034375 0.0005 " transform="matrix(1, 0, 0, -1, 4.777, 118.063)"/>
<path fill="none" stroke-width="0.99628" stroke-linecap="butt" stroke-linejoin="miter" stroke="rgb(9.999084%, 9.999084%, 9.999084%)" stroke-opacity="1" stroke-dasharray="2.98883 2.98883" stroke-miterlimit="10" d="M 28.348 0.0005 L 28.348 56.691906 " transform="matrix(1, 0, 0, -1, 4.777, 118.063)"/>
<path fill="none" stroke-width="0.99628" stroke-linecap="butt" stroke-linejoin="miter" stroke="rgb(9.999084%, 9.999084%, 9.999084%)" stroke-opacity="1" stroke-dasharray="2.98883 2.98883" stroke-miterlimit="10" d="M 0.00034375 28.348156 L 56.69175 28.348156 " transform="matrix(1, 0, 0, -1, 4.777, 118.063)"/>
<path fill-rule="nonzero" fill="rgb(88.233948%, 88.233948%, 100%)" fill-opacity="1" stroke-width="0.3985" stroke-linecap="butt" stroke-linejoin="miter" stroke="rgb(0%, 0%, 0%)" stroke-opacity="1" stroke-miterlimit="10" d="M 0.00034375 170.081344 L 0.00034375 184.253219 L 14.172219 184.253219 L 14.172219 170.081344 Z M 0.00034375 170.081344 " transform="matrix(1, 0, 0, -1, 4.777, 188.929)"/>
<path fill-rule="nonzero" fill="rgb(84.313965%, 84.313965%, 100%)" fill-opacity="1" stroke-width="0.3985" stroke-linecap="butt" stroke-linejoin="miter" stroke="rgb(0%, 0%, 0%)" stroke-opacity="1" stroke-miterlimit="10" d="M 0.00034375 155.905563 L 0.00034375 170.081344 L 14.172219 170.081344 L 14.172219 155.905563 Z M 0.00034375 155.905563 " transform="matrix(1, 0, 0, -1, 4.777, 188.929)"/>
<path fill-rule="nonzero" fill="rgb(82.351685%, 82.351685%, 100%)" fill-opacity="1" stroke-width="0.3985" stroke-linecap="butt" stroke-linejoin="miter" stroke="rgb(0%, 0%, 0%)" stroke-opacity="1" stroke-miterlimit="10" d="M 0.00034375 141.733688 L 0.00034375 155.905563 L 14.172219 155.905563 L 14.172219 141.733688 Z M 0.00034375 141.733688 " transform="matrix(1, 0, 0, -1, 4.777, 188.929)"/>
<path fill-rule="nonzero" fill="rgb(78.431702%, 78.431702%, 100%)" fill-opacity="1" stroke-width="0.3985" stroke-linecap="butt" stroke-linejoin="miter" stroke="rgb(0%, 0%, 0%)" stroke-opacity="1" stroke-miterlimit="10" d="M 0.00034375 127.561813 L 0.00034375 141.733688 L 14.172219 141.733688 L 14.172219 127.561813 Z M 0.00034375 127.561813 " transform="matrix(1, 0, 0, -1, 4.777, 188.929)"/>
<path fill-rule="nonzero" fill="rgb(88.233948%, 100%, 88.233948%)" fill-opacity="1" stroke-width="0.3985" stroke-linecap="butt" stroke-linejoin="miter" stroke="rgb(0%, 0%, 0%)" stroke-opacity="1" stroke-miterlimit="10" d="M 0.00034375 113.386031 L 0.00034375 127.561813 L 14.172219 127.561813 L 14.172219 113.386031 Z M 0.00034375 113.386031 " transform="matrix(1, 0, 0, -1, 4.777, 188.929)"/>
<path fill-rule="nonzero" fill="rgb(84.313965%, 100%, 84.313965%)" fill-opacity="1" stroke-width="0.3985" stroke-linecap="butt" stroke-linejoin="miter" stroke="rgb(0%, 0%, 0%)" stroke-opacity="1" stroke-miterlimit="10" d="M 0.00034375 99.214156 L 0.00034375 113.386031 L 14.172219 113.386031 L 14.172219 99.214156 Z M 0.00034375 99.214156 " transform="matrix(1, 0, 0, -1, 4.777, 188.929)"/>
<path fill-rule="nonzero" fill="rgb(82.351685%, 100%, 82.351685%)" fill-opacity="1" stroke-width="0.3985" stroke-linecap="butt" stroke-linejoin="miter" stroke="rgb(0%, 0%, 0%)" stroke-opacity="1" stroke-miterlimit="10" d="M 0.00034375 85.042281 L 0.00034375 99.214156 L 14.172219 99.214156 L 14.172219 85.042281 Z M 0.00034375 85.042281 " transform="matrix(1, 0, 0, -1, 4.777, 188.929)"/>
<path fill-rule="nonzero" fill="rgb(78.431702%, 100%, 78.431702%)" fill-opacity="1" stroke-width="0.3985" stroke-linecap="butt" stroke-linejoin="miter" stroke="rgb(0%, 0%, 0%)" stroke-opacity="1" stroke-miterlimit="10" d="M 0.00034375 70.8665 L 0.00034375 85.042281 L 14.172219 85.042281 L 14.172219 70.8665 Z M 0.00034375 70.8665 " transform="matrix(1, 0, 0, -1, 4.777, 188.929)"/>
<path fill-rule="nonzero" fill="rgb(100%, 88.233948%, 88.233948%)" fill-opacity="1" stroke-width="0.3985" stroke-linecap="butt" stroke-linejoin="miter" stroke="rgb(0%, 0%, 0%)" stroke-opacity="1" stroke-miterlimit="10" d="M 0.00034375 56.694625 L 0.00034375 70.8665 L 14.172219 70.8665 L 14.172219 56.694625 Z M 0.00034375 56.694625 " transform="matrix(1, 0, 0, -1, 4.777, 188.929)"/>
<path fill-rule="nonzero" fill="rgb(100%, 84.313965%, 84.313965%)" fill-opacity="1" stroke-width="0.3985" stroke-linecap="butt" stroke-linejoin="miter" stroke="rgb(0%, 0%, 0%)" stroke-opacity="1" stroke-miterlimit="10" d="M 0.00034375 42.518844 L 0.00034375 56.694625 L 14.172219 56.694625 L 14.172219 42.518844 Z M 0.00034375 42.518844 " transform="matrix(1, 0, 0, -1, 4.777, 188.929)"/>
<path fill-rule="nonzero" fill="rgb(100%, 82.351685%, 82.351685%)" fill-opacity="1" stroke-width="0.3985" stroke-linecap="butt" stroke-linejoin="miter" stroke="rgb(0%, 0%, 0%)" stroke-opacity="1" stroke-miterlimit="10" d="M 0.00034375 28.346969 L 0.00034375 42.518844 L 14.172219 42.518844 L 14.172219 28.346969 Z M 0.00034375 28.346969 " transform="matrix(1, 0, 0, -1, 4.777, 188.929)"/>
<path fill-rule="nonzero" fill="rgb(100%, 78.431702%, 78.431702%)" fill-opacity="1" stroke-width="0.3985" stroke-linecap="butt" stroke-linejoin="miter" stroke="rgb(0%, 0%, 0%)" stroke-opacity="1" stroke-miterlimit="10" d="M 0.00034375 14.175094 L 0.00034375 28.346969 L 14.172219 28.346969 L 14.172219 14.175094 Z M 0.00034375 14.175094 " transform="matrix(1, 0, 0, -1, 4.777, 188.929)"/>
<path fill-rule="nonzero" fill="rgb(74.508667%, 74.508667%, 100%)" fill-opacity="1" stroke-width="0.3985" stroke-linecap="butt" stroke-linejoin="miter" stroke="rgb(0%, 0%, 0%)" stroke-opacity="1" stroke-miterlimit="10" d="M 14.172219 170.081344 L 14.172219 184.253219 L 28.348 184.253219 L 28.348 170.081344 Z M 14.172219 170.081344 " transform="matrix(1, 0, 0, -1, 4.777, 188.929)"/>
<path fill-rule="nonzero" fill="rgb(70.588684%, 70.588684%, 100%)" fill-opacity="1" stroke-width="0.3985" stroke-linecap="butt" stroke-linejoin="miter" stroke="rgb(0%, 0%, 0%)" stroke-opacity="1" stroke-miterlimit="10" d="M 14.172219 155.905563 L 14.172219 170.081344 L 28.348 170.081344 L 28.348 155.905563 Z M 14.172219 155.905563 " transform="matrix(1, 0, 0, -1, 4.777, 188.929)"/>
<path fill-rule="nonzero" fill="rgb(66.665649%, 66.665649%, 100%)" fill-opacity="1" stroke-width="0.3985" stroke-linecap="butt" stroke-linejoin="miter" stroke="rgb(0%, 0%, 0%)" stroke-opacity="1" stroke-miterlimit="10" d="M 14.172219 141.733688 L 14.172219 155.905563 L 28.348 155.905563 L 28.348 141.733688 Z M 14.172219 141.733688 " transform="matrix(1, 0, 0, -1, 4.777, 188.929)"/>
<path fill-rule="nonzero" fill="rgb(62.745667%, 62.745667%, 100%)" fill-opacity="1" stroke-width="0.3985" stroke-linecap="butt" stroke-linejoin="miter" stroke="rgb(0%, 0%, 0%)" stroke-opacity="1" stroke-miterlimit="10" d="M 14.172219 127.561813 L 14.172219 141.733688 L 28.348 141.733688 L 28.348 127.561813 Z M 14.172219 127.561813 " transform="matrix(1, 0, 0, -1, 4.777, 188.929)"/>
<path fill-rule="nonzero" fill="rgb(74.508667%, 100%, 74.508667%)" fill-opacity="1" stroke-width="0.3985" stroke-linecap="butt" stroke-linejoin="miter" stroke="rgb(0%, 0%, 0%)" stroke-opacity="1" stroke-miterlimit="10" d="M 14.172219 113.386031 L 14.172219 127.561813 L 28.348 127.561813 L 28.348 113.386031 Z M 14.172219 113.386031 " transform="matrix(1, 0, 0, -1, 4.777, 188.929)"/>
<path fill-rule="nonzero" fill="rgb(70.588684%, 100%, 70.588684%)" fill-opacity="1" stroke-width="0.3985" stroke-linecap="butt" stroke-linejoin="miter" stroke="rgb(0%, 0%, 0%)" stroke-opacity="1" stroke-miterlimit="10" d="M 14.172219 99.214156 L 14.172219 113.386031 L 28.348 113.386031 L 28.348 99.214156 Z M 14.172219 99.214156 " transform="matrix(1, 0, 0, -1, 4.777, 188.929)"/>
<path fill-rule="nonzero" fill="rgb(66.665649%, 100%, 66.665649%)" fill-opacity="1" stroke-width="0.3985" stroke-linecap="butt" stroke-linejoin="miter" stroke="rgb(0%, 0%, 0%)" stroke-opacity="1" stroke-miterlimit="10" d="M 14.172219 85.042281 L 14.172219 99.214156 L 28.348 99.214156 L 28.348 85.042281 Z M 14.172219 85.042281 " transform="matrix(1, 0, 0, -1, 4.777, 188.929)"/>
<path fill-rule="nonzero" fill="rgb(62.745667%, 100%, 62.745667%)" fill-opacity="1" stroke-width="0.3985" stroke-linecap="butt" stroke-linejoin="miter" stroke="rgb(0%, 0%, 0%)" stroke-opacity="1" stroke-miterlimit="10" d="M 14.172219 70.8665 L 14.172219 85.042281 L 28.348 85.042281 L 28.348 70.8665 Z M 14.172219 70.8665 " transform="matrix(1, 0, 0, -1, 4.777, 188.929)"/>
<path fill-rule="nonzero" fill="rgb(100%, 74.508667%, 74.508667%)" fill-opacity="1" stroke-width="0.3985" stroke-linecap="butt" stroke-linejoin="miter" stroke="rgb(0%, 0%, 0%)" stroke-opacity="1" stroke-miterlimit="10" d="M 14.172219 56.694625 L 14.172219 70.8665 L 28.348 70.8665 L 28.348 56.694625 Z M 14.172219 56.694625 " transform="matrix(1, 0, 0, -1, 4.777, 188.929)"/>
<path fill-rule="nonzero" fill="rgb(100%, 70.588684%, 70.588684%)" fill-opacity="1" stroke-width="0.3985" stroke-linecap="butt" stroke-linejoin="miter" stroke="rgb(0%, 0%, 0%)" stroke-opacity="1" stroke-miterlimit="10" d="M 14.172219 42.518844 L 14.172219 56.694625 L 28.348 56.694625 L 28.348 42.518844 Z M 14.172219 42.518844 " transform="matrix(1, 0, 0, -1, 4.777, 188.929)"/>
<path fill-rule="nonzero" fill="rgb(100%, 66.665649%, 66.665649%)" fill-opacity="1" stroke-width="0.3985" stroke-linecap="butt" stroke-linejoin="miter" stroke="rgb(0%, 0%, 0%)" stroke-opacity="1" stroke-miterlimit="10" d="M 14.172219 28.346969 L 14.172219 42.518844 L 28.348 42.518844 L 28.348 28.346969 Z M 14.172219 28.346969 " transform="matrix(1, 0, 0, -1, 4.777, 188.929)"/>
<path fill-rule="nonzero" fill="rgb(100%, 62.745667%, 62.745667%)" fill-opacity="1" stroke-width="0.3985" stroke-linecap="butt" stroke-linejoin="miter" stroke="rgb(0%, 0%, 0%)" stroke-opacity="1" stroke-miterlimit="10" d="M 14.172219 14.175094 L 14.172219 28.346969 L 28.348 28.346969 L 28.348 14.175094 Z M 14.172219 14.175094 " transform="matrix(1, 0, 0, -1, 4.777, 188.929)"/>
<path fill-rule="nonzero" fill="rgb(58.822632%, 58.822632%, 98.039246%)" fill-opacity="1" stroke-width="0.3985" stroke-linecap="butt" stroke-linejoin="miter" stroke="rgb(0%, 0%, 0%)" stroke-opacity="1" stroke-miterlimit="10" d="M 28.348 170.081344 L 28.348 184.253219 L 42.519875 184.253219 L 42.519875 170.081344 Z M 28.348 170.081344 " transform="matrix(1, 0, 0, -1, 4.777, 188.929)"/>
<path fill-rule="nonzero" fill="rgb(54.902649%, 54.902649%, 94.119263%)" fill-opacity="1" stroke-width="0.3985" stroke-linecap="butt" stroke-linejoin="miter" stroke="rgb(0%, 0%, 0%)" stroke-opacity="1" stroke-miterlimit="10" d="M 28.348 155.905563 L 28.348 170.081344 L 42.519875 170.081344 L 42.519875 155.905563 Z M 28.348 155.905563 " transform="matrix(1, 0, 0, -1, 4.777, 188.929)"/>
<path fill-rule="nonzero" fill="rgb(50.979614%, 50.979614%, 90.194702%)" fill-opacity="1" stroke-width="0.3985" stroke-linecap="butt" stroke-linejoin="miter" stroke="rgb(0%, 0%, 0%)" stroke-opacity="1" stroke-miterlimit="10" d="M 28.348 141.733688 L 28.348 155.905563 L 42.519875 155.905563 L 42.519875 141.733688 Z M 28.348 141.733688 " transform="matrix(1, 0, 0, -1, 4.777, 188.929)"/>
<path fill-rule="nonzero" fill="rgb(47.059631%, 47.059631%, 86.274719%)" fill-opacity="1" stroke-width="0.3985" stroke-linecap="butt" stroke-linejoin="miter" stroke="rgb(0%, 0%, 0%)" stroke-opacity="1" stroke-miterlimit="10" d="M 28.348 127.561813 L 28.348 141.733688 L 42.519875 141.733688 L 42.519875 127.561813 Z M 28.348 127.561813 " transform="matrix(1, 0, 0, -1, 4.777, 188.929)"/>
<path fill-rule="nonzero" fill="rgb(58.822632%, 98.039246%, 58.822632%)" fill-opacity="1" stroke-width="0.3985" stroke-linecap="butt" stroke-linejoin="miter" stroke="rgb(0%, 0%, 0%)" stroke-opacity="1" stroke-miterlimit="10" d="M 28.348 113.386031 L 28.348 127.561813 L 42.519875 127.561813 L 42.519875 113.386031 Z M 28.348 113.386031 " transform="matrix(1, 0, 0, -1, 4.777, 188.929)"/>
<path fill-rule="nonzero" fill="rgb(54.902649%, 94.119263%, 54.902649%)" fill-opacity="1" stroke-width="0.3985" stroke-linecap="butt" stroke-linejoin="miter" stroke="rgb(0%, 0%, 0%)" stroke-opacity="1" stroke-miterlimit="10" d="M 28.348 99.214156 L 28.348 113.386031 L 42.519875 113.386031 L 42.519875 99.214156 Z M 28.348 99.214156 " transform="matrix(1, 0, 0, -1, 4.777, 188.929)"/>
<path fill-rule="nonzero" fill="rgb(50.979614%, 90.194702%, 50.979614%)" fill-opacity="1" stroke-width="0.3985" stroke-linecap="butt" stroke-linejoin="miter" stroke="rgb(0%, 0%, 0%)" stroke-opacity="1" stroke-miterlimit="10" d="M 28.348 85.042281 L 28.348 99.214156 L 42.519875 99.214156 L 42.519875 85.042281 Z M 28.348 85.042281 " transform="matrix(1, 0, 0, -1, 4.777, 188.929)"/>
<path fill-rule="nonzero" fill="rgb(47.059631%, 86.274719%, 47.059631%)" fill-opacity="1" stroke-width="0.3985" stroke-linecap="butt" stroke-linejoin="miter" stroke="rgb(0%, 0%, 0%)" stroke-opacity="1" stroke-miterlimit="10" d="M 28.348 70.8665 L 28.348 85.042281 L 42.519875 85.042281 L 42.519875 70.8665 Z M 28.348 70.8665 " transform="matrix(1, 0, 0, -1, 4.777, 188.929)"/>
<path fill-rule="nonzero" fill="rgb(98.039246%, 58.822632%, 58.822632%)" fill-opacity="1" stroke-width="0.3985" stroke-linecap="butt" stroke-linejoin="miter" stroke="rgb(0%, 0%, 0%)" stroke-opacity="1" stroke-miterlimit="10" d="M 28.348 56.694625 L 28.348 70.8665 L 42.519875 70.8665 L 42.519875 56.694625 Z M 28.348 56.694625 " transform="matrix(1, 0, 0, -1, 4.777, 188.929)"/>
<path fill-rule="nonzero" fill="rgb(94.119263%, 54.902649%, 54.902649%)" fill-opacity="1" stroke-width="0.3985" stroke-linecap="butt" stroke-linejoin="miter" stroke="rgb(0%, 0%, 0%)" stroke-opacity="1" stroke-miterlimit="10" d="M 28.348 42.518844 L 28.348 56.694625 L 42.519875 56.694625 L 42.519875 42.518844 Z M 28.348 42.518844 " transform="matrix(1, 0, 0, -1, 4.777, 188.929)"/>
<path fill-rule="nonzero" fill="rgb(90.194702%, 50.979614%, 50.979614%)" fill-opacity="1" stroke-width="0.3985" stroke-linecap="butt" stroke-linejoin="miter" stroke="rgb(0%, 0%, 0%)" stroke-opacity="1" stroke-miterlimit="10" d="M 28.348 28.346969 L 28.348 42.518844 L 42.519875 42.518844 L 42.519875 28.346969 Z M 28.348 28.346969 " transform="matrix(1, 0, 0, -1, 4.777, 188.929)"/>
<path fill-rule="nonzero" fill="rgb(86.274719%, 47.059631%, 47.059631%)" fill-opacity="1" stroke-width="0.3985" stroke-linecap="butt" stroke-linejoin="miter" stroke="rgb(0%, 0%, 0%)" stroke-opacity="1" stroke-miterlimit="10" d="M 28.348 14.175094 L 28.348 28.346969 L 42.519875 28.346969 L 42.519875 14.175094 Z M 28.348 14.175094 " transform="matrix(1, 0, 0, -1, 4.777, 188.929)"/>
<path fill-rule="nonzero" fill="rgb(43.136597%, 43.136597%, 82.351685%)" fill-opacity="1" stroke-width="0.3985" stroke-linecap="butt" stroke-linejoin="miter" stroke="rgb(0%, 0%, 0%)" stroke-opacity="1" stroke-miterlimit="10" d="M 42.519875 170.081344 L 42.519875 184.253219 L 56.69175 184.253219 L 56.69175 170.081344 Z M 42.519875 170.081344 " transform="matrix(1, 0, 0, -1, 4.777, 188.929)"/>
<path fill-rule="nonzero" fill="rgb(39.216614%, 39.216614%, 78.431702%)" fill-opacity="1" stroke-width="0.3985" stroke-linecap="butt" stroke-linejoin="miter" stroke="rgb(0%, 0%, 0%)" stroke-opacity="1" stroke-miterlimit="10" d="M 42.519875 155.905563 L 42.519875 170.081344 L 56.69175 170.081344 L 56.69175 155.905563 Z M 42.519875 155.905563 " transform="matrix(1, 0, 0, -1, 4.777, 188.929)"/>
<path fill-rule="nonzero" fill="rgb(35.293579%, 35.293579%, 74.508667%)" fill-opacity="1" stroke-width="0.3985" stroke-linecap="butt" stroke-linejoin="miter" stroke="rgb(0%, 0%, 0%)" stroke-opacity="1" stroke-miterlimit="10" d="M 42.519875 141.733688 L 42.519875 155.905563 L 56.69175 155.905563 L 56.69175 141.733688 Z M 42.519875 141.733688 " transform="matrix(1, 0, 0, -1, 4.777, 188.929)"/>
<path fill-rule="nonzero" fill="rgb(31.373596%, 31.373596%, 70.588684%)" fill-opacity="1" stroke-width="0.3985" stroke-linecap="butt" stroke-linejoin="miter" stroke="rgb(0%, 0%, 0%)" stroke-opacity="1" stroke-miterlimit="10" d="M 42.519875 127.561813 L 42.519875 141.733688 L 56.69175 141.733688 L 56.69175 127.561813 Z M 42.519875 127.561813 " transform="matrix(1, 0, 0, -1, 4.777, 188.929)"/>
<path fill-rule="nonzero" fill="rgb(43.136597%, 82.351685%, 43.136597%)" fill-opacity="1" stroke-width="0.3985" stroke-linecap="butt" stroke-linejoin="miter" stroke="rgb(0%, 0%, 0%)" stroke-opacity="1" stroke-miterlimit="10" d="M 42.519875 113.386031 L 42.519875 127.561813 L 56.69175 127.561813 L 56.69175 113.386031 Z M 42.519875 113.386031 " transform="matrix(1, 0, 0, -1, 4.777, 188.929)"/>
<path fill-rule="nonzero" fill="rgb(39.216614%, 78.431702%, 39.216614%)" fill-opacity="1" stroke-width="0.3985" stroke-linecap="butt" stroke-linejoin="miter" stroke="rgb(0%, 0%, 0%)" stroke-opacity="1" stroke-miterlimit="10" d="M 42.519875 99.214156 L 42.519875 113.386031 L 56.69175 113.386031 L 56.69175 99.214156 Z M 42.519875 99.214156 " transform="matrix(1, 0, 0, -1, 4.777, 188.929)"/>
<path fill-rule="nonzero" fill="rgb(35.293579%, 74.508667%, 35.293579%)" fill-opacity="1" stroke-width="0.3985" stroke-linecap="butt" stroke-linejoin="miter" stroke="rgb(0%, 0%, 0%)" stroke-opacity="1" stroke-miterlimit="10" d="M 42.519875 85.042281 L 42.519875 99.214156 L 56.69175 99.214156 L 56.69175 85.042281 Z M 42.519875 85.042281 " transform="matrix(1, 0, 0, -1, 4.777, 188.929)"/>
<path fill-rule="nonzero" fill="rgb(31.373596%, 70.588684%, 31.373596%)" fill-opacity="1" stroke-width="0.3985" stroke-linecap="butt" stroke-linejoin="miter" stroke="rgb(0%, 0%, 0%)" stroke-opacity="1" stroke-miterlimit="10" d="M 42.519875 70.8665 L 42.519875 85.042281 L 56.69175 85.042281 L 56.69175 70.8665 Z M 42.519875 70.8665 " transform="matrix(1, 0, 0, -1, 4.777, 188.929)"/>
<path fill-rule="nonzero" fill="rgb(82.351685%, 43.136597%, 43.136597%)" fill-opacity="1" stroke-width="0.3985" stroke-linecap="butt" stroke-linejoin="miter" stroke="rgb(0%, 0%, 0%)" stroke-opacity="1" stroke-miterlimit="10" d="M 42.519875 56.694625 L 42.519875 70.8665 L 56.69175 70.8665 L 56.69175 56.694625 Z M 42.519875 56.694625 " transform="matrix(1, 0, 0, -1, 4.777, 188.929)"/>
<path fill-rule="nonzero" fill="rgb(78.431702%, 39.216614%, 39.216614%)" fill-opacity="1" stroke-width="0.3985" stroke-linecap="butt" stroke-linejoin="miter" stroke="rgb(0%, 0%, 0%)" stroke-opacity="1" stroke-miterlimit="10" d="M 42.519875 42.518844 L 42.519875 56.694625 L 56.69175 56.694625 L 56.69175 42.518844 Z M 42.519875 42.518844 " transform="matrix(1, 0, 0, -1, 4.777, 188.929)"/>
<path fill-rule="nonzero" fill="rgb(74.508667%, 35.293579%, 35.293579%)" fill-opacity="1" stroke-width="0.3985" stroke-linecap="butt" stroke-linejoin="miter" stroke="rgb(0%, 0%, 0%)" stroke-opacity="1" stroke-miterlimit="10" d="M 42.519875 28.346969 L 42.519875 42.518844 L 56.69175 42.518844 L 56.69175 28.346969 Z M 42.519875 28.346969 " transform="matrix(1, 0, 0, -1, 4.777, 188.929)"/>
<path fill-rule="nonzero" fill="rgb(70.588684%, 31.373596%, 31.373596%)" fill-opacity="1" stroke-width="0.3985" stroke-linecap="butt" stroke-linejoin="miter" stroke="rgb(0%, 0%, 0%)" stroke-opacity="1" stroke-miterlimit="10" d="M 42.519875 14.175094 L 42.519875 28.346969 L 56.69175 28.346969 L 56.69175 14.175094 Z M 42.519875 14.175094 " transform="matrix(1, 0, 0, -1, 4.777, 188.929)"/>
<path fill="none" stroke-width="0.99628" stroke-linecap="butt" stroke-linejoin="miter" stroke="rgb(0%, 0%, 0%)" stroke-opacity="1" stroke-miterlimit="10" d="M 0.00034375 14.175094 L 0.00034375 184.253219 L 56.69175 184.253219 L 56.69175 14.175094 Z M 0.00034375 14.175094 " transform="matrix(1, 0, 0, -1, 4.777, 188.929)"/>
<path fill="none" stroke-width="0.99628" stroke-linecap="butt" stroke-linejoin="miter" stroke="rgb(0%, 0%, 0%)" stroke-opacity="1" stroke-dasharray="2.98883 2.98883" stroke-miterlimit="10" d="M 0.00034375 127.561813 L 56.69175 127.561813 " transform="matrix(1, 0, 0, -1, 4.777, 188.929)"/>
<path fill="none" stroke-width="0.99628" stroke-linecap="butt" stroke-linejoin="miter" stroke="rgb(0%, 0%, 0%)" stroke-opacity="1" stroke-dasharray="2.98883 2.98883" stroke-miterlimit="10" d="M 0.00034375 70.8665 L 56.69175 70.8665 " transform="matrix(1, 0, 0, -1, 4.777, 188.929)"/>
<path fill="none" stroke-width="0.99628" stroke-linecap="butt" stroke-linejoin="miter" stroke="rgb(0%, 0%, 0%)" stroke-opacity="1" stroke-dasharray="2.98883 2.98883" stroke-miterlimit="10" d="M 0.00034375 14.175094 L 56.69175 14.175094 " transform="matrix(1, 0, 0, -1, 4.777, 188.929)"/>
<path fill="none" stroke-width="0.99628" stroke-linecap="butt" stroke-linejoin="miter" stroke="rgb(0%, 0%, 0%)" stroke-opacity="1" stroke-dasharray="2.98883 2.98883" stroke-miterlimit="10" d="M 14.172219 14.175094 L 14.172219 184.253219 " transform="matrix(1, 0, 0, -1, 4.777, 188.929)"/>
<path fill="none" stroke-width="0.99628" stroke-linecap="butt" stroke-linejoin="miter" stroke="rgb(0%, 0%, 0%)" stroke-opacity="1" stroke-dasharray="2.98883 2.98883" stroke-miterlimit="10" d="M 28.348 14.175094 L 28.348 184.253219 " transform="matrix(1, 0, 0, -1, 4.777, 188.929)"/>
<path fill="none" stroke-width="0.99628" stroke-linecap="butt" stroke-linejoin="miter" stroke="rgb(0%, 0%, 0%)" stroke-opacity="1" stroke-dasharray="2.98883 2.98883" stroke-miterlimit="10" d="M 42.519875 14.175094 L 42.519875 184.253219 " transform="matrix(1, 0, 0, -1, 4.777, 188.929)"/>
</svg>
