<?xml version="1.0" encoding="UTF-8"?>
<svg xmlns="http://www.w3.org/2000/svg" xmlns:xlink="http://www.w3.org/1999/xlink" width="189.254pt" height="189.254pt" viewBox="0 0 189.254 189.254">
<path fill-rule="nonzero" fill="rgb(91.764832%, 94.900513%, 98.039246%)" fill-opacity="1" d="M 4.179688 26.855469 L 26.855469 26.855469 L 26.855469 4.179688 L 4.179688 4.179688 Z M 4.179688 26.855469 "/>
<path fill-rule="nonzero" fill="rgb(91.764832%, 94.900513%, 98.039246%)" fill-opacity="1" d="M 26.457031 26.855469 L 49.136719 26.855469 L 49.136719 4.179688 L 26.457031 4.179688 Z M 26.457031 26.855469 "/>
<path fill-rule="nonzero" fill="rgb(69.410706%, 82.351685%, 90.586853%)" fill-opacity="1" d="M 48.734375 26.855469 L 71.414062 26.855469 L 71.414062 4.179688 L 48.734375 4.179688 Z M 48.734375 26.855469 "/>
<path fill-rule="nonzero" fill="rgb(69.410706%, 82.351685%, 90.586853%)" fill-opacity="1" d="M 71.015625 26.855469 L 93.691406 26.855469 L 93.691406 4.179688 L 71.015625 4.179688 Z M 71.015625 26.855469 "/>
<path fill-rule="nonzero" fill="rgb(33.332825%, 62.353516%, 80.39093%)" fill-opacity="1" d="M 93.292969 26.855469 L 115.972656 26.855469 L 115.972656 4.179688 L 93.292969 4.179688 Z M 93.292969 26.855469 "/>
<path fill-rule="nonzero" fill="rgb(33.332825%, 62.353516%, 80.39093%)" fill-opacity="1" d="M 115.570312 26.855469 L 138.25 26.855469 L 138.25 4.179688 L 115.570312 4.179688 Z M 115.570312 26.855469 "/>
<path fill-rule="nonzero" fill="rgb(7.450867%, 37.644958%, 65.489197%)" fill-opacity="1" d="M 137.851562 26.855469 L 160.527344 26.855469 L 160.527344 4.179688 L 137.851562 4.179688 Z M 137.851562 26.855469 "/>
<path fill-rule="nonzero" fill="rgb(7.450867%, 37.644958%, 65.489197%)" fill-opacity="1" d="M 160.128906 26.855469 L 182.808594 26.855469 L 182.808594 4.179688 L 160.128906 4.179688 Z M 160.128906 26.855469 "/>
<path fill-rule="nonzero" fill="rgb(91.764832%, 94.900513%, 98.039246%)" fill-opacity="1" d="M 4.179688 49.132812 L 26.855469 49.132812 L 26.855469 26.457031 L 4.179688 26.457031 Z M 4.179688 49.132812 "/>
<path fill-rule="nonzero" fill="rgb(91.764832%, 94.900513%, 98.039246%)" fill-opacity="1" d="M 26.457031 49.132812 L 49.136719 49.132812 L 49.136719 26.457031 L 26.457031 26.457031 Z M 26.457031 49.132812 "/>
<path fill-rule="nonzero" fill="rgb(69.410706%, 82.351685%, 90.586853%)" fill-opacity="1" d="M 48.734375 49.132812 L 71.414062 49.132812 L 71.414062 26.457031 L 48.734375 26.457031 Z M 48.734375 49.132812 "/>
<path fill-rule="nonzero" fill="rgb(69.410706%, 82.351685%, 90.586853%)" fill-opacity="1" d="M 71.015625 49.132812 L 93.691406 49.132812 L 93.691406 26.457031 L 71.015625 26.457031 Z M 71.015625 49.132812 "/>
<path fill-rule="nonzero" fill="rgb(33.332825%, 62.353516%, 80.39093%)" fill-opacity="1" d="M 93.292969 49.132812 L 115.972656 49.132812 L 115.972656 26.457031 L 93.292969 26.457031 Z M 93.292969 49.132812 "/>
<path fill-rule="nonzero" fill="rgb(33.332825%, 62.353516%, 80.39093%)" fill-opacity="1" d="M 115.570312 49.132812 L 138.25 49.132812 L 138.25 26.457031 L 115.570312 26.457031 Z M 115.570312 49.132812 "/>
<path fill-rule="nonzero" fill="rgb(7.450867%, 37.644958%, 65.489197%)" fill-opacity="1" d="M 137.851562 49.132812 L 160.527344 49.132812 L 160.527344 26.457031 L 137.851562 26.457031 Z M 137.851562 49.132812 "/>
<path fill-rule="nonzero" fill="rgb(7.450867%, 37.644958%, 65.489197%)" fill-opacity="1" d="M 160.128906 49.132812 L 182.808594 49.132812 L 182.808594 26.457031 L 160.128906 26.457031 Z M 160.128906 49.132812 "/>
<path fill-rule="nonzero" fill="rgb(86.66687%, 91.764832%, 96.470642%)" fill-opacity="1" d="M 4.179688 71.414062 L 26.855469 71.414062 L 26.855469 48.734375 L 4.179688 48.734375 Z M 4.179688 71.414062 "/>
<path fill-rule="nonzero" fill="rgb(86.66687%, 91.764832%, 96.470642%)" fill-opacity="1" d="M 26.457031 71.414062 L 49.136719 71.414062 L 49.136719 48.734375 L 26.457031 48.734375 Z M 26.457031 71.414062 "/>
<path fill-rule="nonzero" fill="rgb(61.567688%, 78.823853%, 87.841797%)" fill-opacity="1" d="M 48.734375 71.414062 L 71.414062 71.414062 L 71.414062 48.734375 L 48.734375 48.734375 Z M 48.734375 71.414062 "/>
<path fill-rule="nonzero" fill="rgb(61.567688%, 78.823853%, 87.841797%)" fill-opacity="1" d="M 71.015625 71.414062 L 93.691406 71.414062 L 93.691406 48.734375 L 71.015625 48.734375 Z M 71.015625 71.414062 "/>
<path fill-rule="nonzero" fill="rgb(25.489807%, 56.861877%, 77.253723%)" fill-opacity="1" d="M 93.292969 71.414062 L 115.972656 71.414062 L 115.972656 48.734375 L 93.292969 48.734375 Z M 93.292969 71.414062 "/>
<path fill-rule="nonzero" fill="rgb(25.489807%, 56.861877%, 77.253723%)" fill-opacity="1" d="M 115.570312 71.414062 L 138.25 71.414062 L 138.25 48.734375 L 115.570312 48.734375 Z M 115.570312 71.414062 "/>
<path fill-rule="nonzero" fill="rgb(3.135681%, 31.373596%, 60.392761%)" fill-opacity="1" d="M 137.851562 71.414062 L 160.527344 71.414062 L 160.527344 48.734375 L 137.851562 48.734375 Z M 137.851562 71.414062 "/>
<path fill-rule="nonzero" fill="rgb(3.135681%, 31.373596%, 60.392761%)" fill-opacity="1" d="M 160.128906 71.414062 L 182.808594 71.414062 L 182.808594 48.734375 L 160.128906 48.734375 Z M 160.128906 71.414062 "/>
<path fill-rule="nonzero" fill="rgb(86.66687%, 91.764832%, 96.470642%)" fill-opacity="1" d="M 4.179688 93.691406 L 26.855469 93.691406 L 26.855469 71.015625 L 4.179688 71.015625 Z M 4.179688 93.691406 "/>
<path fill-rule="nonzero" fill="rgb(86.66687%, 91.764832%, 96.470642%)" fill-opacity="1" d="M 26.457031 93.691406 L 49.136719 93.691406 L 49.136719 71.015625 L 26.457031 71.015625 Z M 26.457031 93.691406 "/>
<path fill-rule="nonzero" fill="rgb(61.567688%, 78.823853%, 87.841797%)" fill-opacity="1" d="M 48.734375 93.691406 L 71.414062 93.691406 L 71.414062 71.015625 L 48.734375 71.015625 Z M 48.734375 93.691406 "/>
<path fill-rule="nonzero" fill="rgb(61.567688%, 78.823853%, 87.841797%)" fill-opacity="1" d="M 71.015625 93.691406 L 93.691406 93.691406 L 93.691406 71.015625 L 71.015625 71.015625 Z M 71.015625 93.691406 "/>
<path fill-rule="nonzero" fill="rgb(25.489807%, 56.861877%, 77.253723%)" fill-opacity="1" d="M 93.292969 93.691406 L 115.972656 93.691406 L 115.972656 71.015625 L 93.292969 71.015625 Z M 93.292969 93.691406 "/>
<path fill-rule="nonzero" fill="rgb(25.489807%, 56.861877%, 77.253723%)" fill-opacity="1" d="M 115.574219 93.691406 L 138.25 93.691406 L 138.25 71.015625 L 115.574219 71.015625 Z M 115.574219 93.691406 "/>
<path fill-rule="nonzero" fill="rgb(3.135681%, 31.373596%, 60.392761%)" fill-opacity="1" d="M 137.851562 93.691406 L 160.527344 93.691406 L 160.527344 71.015625 L 137.851562 71.015625 Z M 137.851562 93.691406 "/>
<path fill-rule="nonzero" fill="rgb(3.135681%, 31.373596%, 60.392761%)" fill-opacity="1" d="M 160.128906 93.691406 L 182.808594 93.691406 L 182.808594 71.015625 L 160.128906 71.015625 Z M 160.128906 93.691406 "/>
<path fill-rule="nonzero" fill="rgb(81.959534%, 88.627625%, 94.900513%)" fill-opacity="1" d="M 4.179688 115.972656 L 26.855469 115.972656 L 26.855469 93.292969 L 4.179688 93.292969 Z M 4.179688 115.972656 "/>
<path fill-rule="nonzero" fill="rgb(81.959534%, 88.627625%, 94.900513%)" fill-opacity="1" d="M 26.457031 115.972656 L 49.136719 115.972656 L 49.136719 93.292969 L 26.457031 93.292969 Z M 26.457031 115.972656 "/>
<path fill-rule="nonzero" fill="rgb(51.371765%, 73.33374%, 85.882568%)" fill-opacity="1" d="M 48.734375 115.972656 L 71.414062 115.972656 L 71.414062 93.292969 L 48.734375 93.292969 Z M 48.734375 115.972656 "/>
<path fill-rule="nonzero" fill="rgb(51.371765%, 73.33374%, 85.882568%)" fill-opacity="1" d="M 71.015625 115.972656 L 93.691406 115.972656 L 93.691406 93.292969 L 71.015625 93.292969 Z M 71.015625 115.972656 "/>
<path fill-rule="nonzero" fill="rgb(18.824768%, 50.193787%, 74.116516%)" fill-opacity="1" d="M 93.292969 115.972656 L 115.972656 115.972656 L 115.972656 93.292969 L 93.292969 93.292969 Z M 93.292969 115.972656 "/>
<path fill-rule="nonzero" fill="rgb(18.824768%, 50.193787%, 74.116516%)" fill-opacity="1" d="M 115.574219 115.972656 L 138.25 115.972656 L 138.25 93.292969 L 115.574219 93.292969 Z M 115.574219 115.972656 "/>
<path fill-rule="nonzero" fill="rgb(3.135681%, 24.705505%, 50.979614%)" fill-opacity="1" d="M 137.851562 115.972656 L 160.527344 115.972656 L 160.527344 93.292969 L 137.851562 93.292969 Z M 137.851562 115.972656 "/>
<path fill-rule="nonzero" fill="rgb(3.135681%, 24.705505%, 50.979614%)" fill-opacity="1" d="M 160.128906 115.972656 L 182.808594 115.972656 L 182.808594 93.292969 L 160.128906 93.292969 Z M 160.128906 115.972656 "/>
<path fill-rule="nonzero" fill="rgb(81.959534%, 88.627625%, 94.900513%)" fill-opacity="1" d="M 4.179688 138.25 L 26.855469 138.25 L 26.855469 115.570312 L 4.179688 115.570312 Z M 4.179688 138.25 "/>
<path fill-rule="nonzero" fill="rgb(81.959534%, 88.627625%, 94.900513%)" fill-opacity="1" d="M 26.457031 138.25 L 49.136719 138.25 L 49.136719 115.570312 L 26.457031 115.570312 Z M 26.457031 138.25 "/>
<path fill-rule="nonzero" fill="rgb(51.371765%, 73.33374%, 85.882568%)" fill-opacity="1" d="M 48.734375 138.25 L 71.414062 138.25 L 71.414062 115.570312 L 48.734375 115.570312 Z M 48.734375 138.25 "/>
<path fill-rule="nonzero" fill="rgb(51.371765%, 73.33374%, 85.882568%)" fill-opacity="1" d="M 71.015625 138.25 L 93.691406 138.25 L 93.691406 115.570312 L 71.015625 115.570312 Z M 71.015625 138.25 "/>
<path fill-rule="nonzero" fill="rgb(18.824768%, 50.193787%, 74.116516%)" fill-opacity="1" d="M 93.292969 138.25 L 115.972656 138.25 L 115.972656 115.570312 L 93.292969 115.570312 Z M 93.292969 138.25 "/>
<path fill-rule="nonzero" fill="rgb(18.824768%, 50.193787%, 74.116516%)" fill-opacity="1" d="M 115.574219 138.25 L 138.25 138.25 L 138.25 115.570312 L 115.574219 115.570312 Z M 115.574219 138.25 "/>
<path fill-rule="nonzero" fill="rgb(3.135681%, 24.705505%, 50.979614%)" fill-opacity="1" d="M 137.851562 138.25 L 160.527344 138.25 L 160.527344 115.570312 L 137.851562 115.570312 Z M 137.851562 138.25 "/>
<path fill-rule="nonzero" fill="rgb(3.135681%, 24.705505%, 50.979614%)" fill-opacity="1" d="M 160.128906 138.25 L 182.808594 138.25 L 182.808594 115.570312 L 160.128906 115.570312 Z M 160.128906 138.25 "/>
<path fill-rule="nonzero" fill="rgb(77.253723%, 85.488892%, 93.331909%)" fill-opacity="1" d="M 4.179688 160.527344 L 26.855469 160.527344 L 26.855469 137.851562 L 4.179688 137.851562 Z M 4.179688 160.527344 "/>
<path fill-rule="nonzero" fill="rgb(77.253723%, 85.488892%, 93.331909%)" fill-opacity="1" d="M 26.457031 160.527344 L 49.136719 160.527344 L 49.136719 137.851562 L 26.457031 137.851562 Z M 26.457031 160.527344 "/>
<path fill-rule="nonzero" fill="rgb(41.569519%, 67.843628%, 83.529663%)" fill-opacity="1" d="M 48.734375 160.527344 L 71.414062 160.527344 L 71.414062 137.851562 L 48.734375 137.851562 Z M 48.734375 160.527344 "/>
<path fill-rule="nonzero" fill="rgb(41.569519%, 67.843628%, 83.529663%)" fill-opacity="1" d="M 71.015625 160.527344 L 93.691406 160.527344 L 93.691406 137.851562 L 71.015625 137.851562 Z M 71.015625 160.527344 "/>
<path fill-rule="nonzero" fill="rgb(12.548828%, 43.920898%, 70.588684%)" fill-opacity="1" d="M 93.292969 160.527344 L 115.972656 160.527344 L 115.972656 137.851562 L 93.292969 137.851562 Z M 93.292969 160.527344 "/>
<path fill-rule="nonzero" fill="rgb(12.548828%, 43.920898%, 70.588684%)" fill-opacity="1" d="M 115.574219 160.527344 L 138.25 160.527344 L 138.25 137.851562 L 115.574219 137.851562 Z M 115.574219 160.527344 "/>
<path fill-rule="nonzero" fill="rgb(3.135681%, 18.824768%, 41.96167%)" fill-opacity="1" d="M 137.851562 160.527344 L 160.527344 160.527344 L 160.527344 137.851562 L 137.851562 137.851562 Z M 137.851562 160.527344 "/>
<path fill-rule="nonzero" fill="rgb(3.135681%, 18.824768%, 41.96167%)" fill-opacity="1" d="M 160.128906 160.527344 L 182.808594 160.527344 L 182.808594 137.851562 L 160.128906 137.851562 Z M 160.128906 160.527344 "/>
<path fill-rule="nonzero" fill="rgb(77.253723%, 85.488892%, 93.331909%)" fill-opacity="1" d="M 4.179688 182.808594 L 26.855469 182.808594 L 26.855469 160.128906 L 4.179688 160.128906 Z M 4.179688 182.808594 "/>
<path fill-rule="nonzero" fill="rgb(77.253723%, 85.488892%, 93.331909%)" fill-opacity="1" d="M 26.457031 182.808594 L 49.136719 182.808594 L 49.136719 160.128906 L 26.457031 160.128906 Z M 26.457031 182.808594 "/>
<path fill-rule="nonzero" fill="rgb(41.569519%, 67.843628%, 83.529663%)" fill-opacity="1" d="M 48.734375 182.808594 L 71.414062 182.808594 L 71.414062 160.128906 L 48.734375 160.128906 Z M 48.734375 182.808594 "/>
<path fill-rule="nonzero" fill="rgb(41.569519%, 67.843628%, 83.529663%)" fill-opacity="1" d="M 71.015625 182.808594 L 93.691406 182.808594 L 93.691406 160.128906 L 71.015625 160.128906 Z M 71.015625 182.808594 "/>
<path fill-rule="nonzero" fill="rgb(12.548828%, 43.920898%, 70.588684%)" fill-opacity="1" d="M 93.292969 182.808594 L 115.972656 182.808594 L 115.972656 160.128906 L 93.292969 160.128906 Z M 93.292969 182.808594 "/>
<path fill-rule="nonzero" fill="rgb(12.548828%, 43.920898%, 70.588684%)" fill-opacity="1" d="M 115.574219 182.808594 L 138.25 182.808594 L 138.25 160.128906 L 115.574219 160.128906 Z M 115.574219 182.808594 "/>
<path fill-rule="nonzero" fill="rgb(3.135681%, 18.824768%, 41.96167%)" fill-opacity="1" d="M 137.851562 182.808594 L 160.527344 182.808594 L 160.527344 160.128906 L 137.851562 160.128906 Z M 137.851562 182.808594 "/>
<path fill-rule="nonzero" fill="rgb(3.135681%, 18.824768%, 41.96167%)" fill-opacity="1" d="M 160.128906 182.808594 L 182.808594 182.808594 L 182.808594 160.128906 L 160.128906 160.128906 Z M 160.128906 182.808594 "/>
<path fill="none" stroke-width="0.3985" stroke-linecap="butt" stroke-linejoin="miter" stroke="rgb(50%, 50%, 50%)" stroke-opacity="1" stroke-miterlimit="10" d="M -77.977375 89.317219 L -77.977375 -89.315594 " transform="matrix(1, 0, 0, -1, 93.493, 93.493)"/>
<path fill="none" stroke-width="0.3985" stroke-linecap="butt" stroke-linejoin="miter" stroke="rgb(50%, 50%, 50%)" stroke-opacity="1" stroke-miterlimit="10" d="M -55.696125 89.317219 L -55.696125 -89.315594 " transform="matrix(1, 0, 0, -1, 93.493, 93.493)"/>
<path fill="none" stroke-width="0.3985" stroke-linecap="butt" stroke-linejoin="miter" stroke="rgb(50%, 50%, 50%)" stroke-opacity="1" stroke-miterlimit="10" d="M -33.418781 89.317219 L -33.418781 -89.315594 " transform="matrix(1, 0, 0, -1, 93.493, 93.493)"/>
<path fill="none" stroke-width="0.3985" stroke-linecap="butt" stroke-linejoin="miter" stroke="rgb(50%, 50%, 50%)" stroke-opacity="1" stroke-miterlimit="10" d="M -11.141438 89.317219 L -11.141438 -89.315594 " transform="matrix(1, 0, 0, -1, 93.493, 93.493)"/>
<path fill="none" stroke-width="0.3985" stroke-linecap="butt" stroke-linejoin="miter" stroke="rgb(50%, 50%, 50%)" stroke-opacity="1" stroke-miterlimit="10" d="M 11.139812 89.317219 L 11.139812 -89.315594 " transform="matrix(1, 0, 0, -1, 93.493, 93.493)"/>
<path fill="none" stroke-width="0.3985" stroke-linecap="butt" stroke-linejoin="miter" stroke="rgb(50%, 50%, 50%)" stroke-opacity="1" stroke-miterlimit="10" d="M 33.417156 89.317219 L 33.417156 -89.315594 " transform="matrix(1, 0, 0, -1, 93.493, 93.493)"/>
<path fill="none" stroke-width="0.3985" stroke-linecap="butt" stroke-linejoin="miter" stroke="rgb(50%, 50%, 50%)" stroke-opacity="1" stroke-miterlimit="10" d="M 55.698406 89.317219 L 55.698406 -89.315594 " transform="matrix(1, 0, 0, -1, 93.493, 93.493)"/>
<path fill="none" stroke-width="0.3985" stroke-linecap="butt" stroke-linejoin="miter" stroke="rgb(50%, 50%, 50%)" stroke-opacity="1" stroke-miterlimit="10" d="M 77.97575 89.317219 L 77.97575 -89.315594 " transform="matrix(1, 0, 0, -1, 93.493, 93.493)"/>
<path fill="none" stroke-width="0.3985" stroke-linecap="butt" stroke-linejoin="miter" stroke="rgb(50%, 50%, 50%)" stroke-opacity="1" stroke-miterlimit="10" d="M -66.637531 89.317219 L -66.637531 -89.315594 " transform="matrix(1, 0, 0, -1, 93.493, 93.493)"/>
<path fill="none" stroke-width="0.3985" stroke-linecap="butt" stroke-linejoin="miter" stroke="rgb(50%, 50%, 50%)" stroke-opacity="1" stroke-miterlimit="10" d="M -44.360188 89.317219 L -44.360188 -89.315594 " transform="matrix(1, 0, 0, -1, 93.493, 93.493)"/>
<path fill="none" stroke-width="0.3985" stroke-linecap="butt" stroke-linejoin="miter" stroke="rgb(50%, 50%, 50%)" stroke-opacity="1" stroke-miterlimit="10" d="M -22.078938 89.317219 L -22.078938 -89.315594 " transform="matrix(1, 0, 0, -1, 93.493, 93.493)"/>
<path fill="none" stroke-width="0.3985" stroke-linecap="butt" stroke-linejoin="miter" stroke="rgb(50%, 50%, 50%)" stroke-opacity="1" stroke-miterlimit="10" d="M 0.198406 89.317219 L 0.198406 -89.315594 " transform="matrix(1, 0, 0, -1, 93.493, 93.493)"/>
<path fill="none" stroke-width="0.3985" stroke-linecap="butt" stroke-linejoin="miter" stroke="rgb(50%, 50%, 50%)" stroke-opacity="1" stroke-miterlimit="10" d="M 22.479656 89.317219 L 22.479656 -89.315594 " transform="matrix(1, 0, 0, -1, 93.493, 93.493)"/>
<path fill="none" stroke-width="0.3985" stroke-linecap="butt" stroke-linejoin="miter" stroke="rgb(50%, 50%, 50%)" stroke-opacity="1" stroke-miterlimit="10" d="M 44.757 89.317219 L 44.757 -89.315594 " transform="matrix(1, 0, 0, -1, 93.493, 93.493)"/>
<path fill="none" stroke-width="0.3985" stroke-linecap="butt" stroke-linejoin="miter" stroke="rgb(50%, 50%, 50%)" stroke-opacity="1" stroke-miterlimit="10" d="M 67.03825 89.317219 L 67.03825 -89.315594 " transform="matrix(1, 0, 0, -1, 93.493, 93.493)"/>
<path fill="none" stroke-width="0.3985" stroke-linecap="butt" stroke-linejoin="miter" stroke="rgb(50%, 50%, 50%)" stroke-opacity="1" stroke-miterlimit="10" d="M -89.317219 77.977375 L 89.315594 77.977375 " transform="matrix(1, 0, 0, -1, 93.493, 93.493)"/>
<path fill="none" stroke-width="0.3985" stroke-linecap="butt" stroke-linejoin="miter" stroke="rgb(50%, 50%, 50%)" stroke-opacity="1" stroke-miterlimit="10" d="M -89.317219 55.696125 L 89.315594 55.696125 " transform="matrix(1, 0, 0, -1, 93.493, 93.493)"/>
<path fill="none" stroke-width="0.3985" stroke-linecap="butt" stroke-linejoin="miter" stroke="rgb(50%, 50%, 50%)" stroke-opacity="1" stroke-miterlimit="10" d="M -89.317219 33.418781 L 89.315594 33.418781 " transform="matrix(1, 0, 0, -1, 93.493, 93.493)"/>
<path fill="none" stroke-width="0.3985" stroke-linecap="butt" stroke-linejoin="miter" stroke="rgb(50%, 50%, 50%)" stroke-opacity="1" stroke-miterlimit="10" d="M -89.317219 11.141437 L 89.315594 11.141437 " transform="matrix(1, 0, 0, -1, 93.493, 93.493)"/>
<path fill="none" stroke-width="0.3985" stroke-linecap="butt" stroke-linejoin="miter" stroke="rgb(50%, 50%, 50%)" stroke-opacity="1" stroke-miterlimit="10" d="M -89.317219 -11.139813 L 89.315594 -11.139813 " transform="matrix(1, 0, 0, -1, 93.493, 93.493)"/>
<path fill="none" stroke-width="0.3985" stroke-linecap="butt" stroke-linejoin="miter" stroke="rgb(50%, 50%, 50%)" stroke-opacity="1" stroke-miterlimit="10" d="M -89.317219 -33.417156 L 89.315594 -33.417156 " transform="matrix(1, 0, 0, -1, 93.493, 93.493)"/>
<path fill="none" stroke-width="0.3985" stroke-linecap="butt" stroke-linejoin="miter" stroke="rgb(50%, 50%, 50%)" stroke-opacity="1" stroke-miterlimit="10" d="M -89.317219 -55.698406 L 89.315594 -55.698406 " transform="matrix(1, 0, 0, -1, 93.493, 93.493)"/>
<path fill="none" stroke-width="0.3985" stroke-linecap="butt" stroke-linejoin="miter" stroke="rgb(50%, 50%, 50%)" stroke-opacity="1" stroke-miterlimit="10" d="M -89.317219 -77.97575 L 89.315594 -77.97575 " transform="matrix(1, 0, 0, -1, 93.493, 93.493)"/>
<path fill="none" stroke-width="0.3985" stroke-linecap="butt" stroke-linejoin="miter" stroke="rgb(50%, 50%, 50%)" stroke-opacity="1" stroke-miterlimit="10" d="M -89.317219 66.637531 L 89.315594 66.637531 " transform="matrix(1, 0, 0, -1, 93.493, 93.493)"/>
<path fill="none" stroke-width="0.3985" stroke-linecap="butt" stroke-linejoin="miter" stroke="rgb(50%, 50%, 50%)" stroke-opacity="1" stroke-miterlimit="10" d="M -89.317219 44.360187 L 89.315594 44.360187 " transform="matrix(1, 0, 0, -1, 93.493, 93.493)"/>
<path fill="none" stroke-width="0.3985" stroke-linecap="butt" stroke-linejoin="miter" stroke="rgb(50%, 50%, 50%)" stroke-opacity="1" stroke-miterlimit="10" d="M -89.317219 22.078937 L 89.315594 22.078937 " transform="matrix(1, 0, 0, -1, 93.493, 93.493)"/>
<path fill="none" stroke-width="0.3985" stroke-linecap="butt" stroke-linejoin="miter" stroke="rgb(50%, 50%, 50%)" stroke-opacity="1" stroke-miterlimit="10" d="M -89.317219 -0.198406 L 89.315594 -0.198406 " transform="matrix(1, 0, 0, -1, 93.493, 93.493)"/>
<path fill="none" stroke-width="0.3985" stroke-linecap="butt" stroke-linejoin="miter" stroke="rgb(50%, 50%, 50%)" stroke-opacity="1" stroke-miterlimit="10" d="M -89.317219 -22.479656 L 89.315594 -22.479656 " transform="matrix(1, 0, 0, -1, 93.493, 93.493)"/>
<path fill="none" stroke-width="0.3985" stroke-linecap="butt" stroke-linejoin="miter" stroke="rgb(50%, 50%, 50%)" stroke-opacity="1" stroke-miterlimit="10" d="M -89.317219 -44.757 L 89.315594 -44.757 " transform="matrix(1, 0, 0, -1, 93.493, 93.493)"/>
<path fill="none" stroke-width="0.3985" stroke-linecap="butt" stroke-linejoin="miter" stroke="rgb(50%, 50%, 50%)" stroke-opacity="1" stroke-miterlimit="10" d="M -89.317219 -67.03825 L 89.315594 -67.03825 " transform="matrix(1, 0, 0, -1, 93.493, 93.493)"/>
<path fill="none" stroke-width="1.19553" stroke-linecap="butt" stroke-linejoin="miter" stroke="rgb(0%, 0%, 0%)" stroke-opacity="1" stroke-miterlimit="10" d="M -89.317219 89.317219 L 89.315594 89.317219 " transform="matrix(1, 0, 0, -1, 93.493, 93.493)"/>
<path fill="none" stroke-width="1.19553" stroke-linecap="butt" stroke-linejoin="miter" stroke="rgb(0%, 0%, 0%)" stroke-opacity="1" stroke-miterlimit="10" d="M -89.317219 89.317219 L -89.317219 -89.315594 " transform="matrix(1, 0, 0, -1, 93.493, 93.493)"/>
<path fill="none" stroke-width="1.19553" stroke-linecap="butt" stroke-linejoin="miter" stroke="rgb(0%, 0%, 0%)" stroke-opacity="1" stroke-miterlimit="10" d="M -89.317219 -89.315594 L 89.315594 -89.315594 " transform="matrix(1, 0, 0, -1, 93.493, 93.493)"/>
<path fill="none" stroke-width="1.19553" stroke-linecap="butt" stroke-linejoin="miter" stroke="rgb(0%, 0%, 0%)" stroke-opacity="1" stroke-miterlimit="10" d="M 89.315594 89.317219 L 89.315594 -89.315594 " transform="matrix(1, 0, 0, -1, 93.493, 93.493)"/>
</svg>
